<?xml version="1.0" encoding="UTF-8"?>
<svg id="Layer_1" data-name="Layer 1" xmlns="http://www.w3.org/2000/svg" viewBox="0 0 36 36">
  <circle cx="18" cy="18" r="17.64" fill="#1948ff"/>
  <path d="M25.49,13.58c0-.08,0-.08-.08-.08-.2,0-.39-.02-.58-.05-.7-.11-2.97-1.3-3.35-3.24,0-.04-.09-.52-.09-.73,0-.09,0-.09-.09-.09-.02,0-.04,0-.06,0-.89,0-1.77,0-2.66,0-.18,0-.15-.02-.15.16,0,3.85,0,7.7,0,11.55,0,.14,0,.29-.03.43-.13.74-.52,1.33-1.16,1.73-.56.34-1.17.44-1.81.32-.2-.04-.39-.12-.58-.19-.02-.01-.03-.03-.05-.04-.06-.05-.13-.1-.2-.15-.82-.57-1.21-1.36-1.09-2.35.12-1,.7-1.68,1.65-2.03.28-.1.58-.15.88-.13.2.01.39.04.58.09.07.02.1,0,.1-.07,0-.02,0-.05,0-.07,0-.69-.03-2.2-.03-2.2,0-.2,0-.4,0-.6,0-.06-.03-.07-.08-.07-.36-.04-.72-.05-1.08-.02-.5.04-.98.14-1.45.31-.75.27-1.4.68-1.97,1.24-.49.48-.87,1.03-1.15,1.65-.27.59-.42,1.22-.46,1.87-.02.28-.01.56.01.85.04.39.11.77.23,1.15.34,1.07.96,1.95,1.84,2.65.09.07.18.15.28.19,0,0,0,0,0,0,.04.04.09.08.13.12.14.11.3.2.45.28.99.49,2.03.69,3.12.55,1.42-.17,2.6-.8,3.54-1.89.88-1.02,1.3-2.22,1.31-3.56.01-1.92,0-3.83,0-5.75,0-.05-.03-.11.02-.13.04-.02.08.03.12.06.71.47,1.48.81,2.32,1,.48.11.97.18,1.47.18.16,0,.18,0,.18-.16,0-.68-.03-2.54-.03-2.72Z" fill="#fff"/>
</svg>