<?xml version="1.0" encoding="UTF-8"?>
<svg id="Layer_2" data-name="Layer 2" xmlns="http://www.w3.org/2000/svg" viewBox="0 0 39.6 54.85">
  <g id="Layer_1-2" data-name="Layer 1" fill="#00EFD2">
    <path d="M24.44,1.99l-.05-.05c-1.2-1.23-2.87-1.94-4.59-1.94s-3.39.71-4.6,1.95C10.07,7.28,0,22.97,0,35.07c0,10.91,8.88,19.78,19.8,19.78s19.8-8.88,19.8-19.78c0-12.07-10.01-27.71-15.16-33.08ZM33.36,28.58H6.24c2.39-9.08,8.95-18.97,12.77-22.94.21-.21.49-.33.78-.33h0c.29,0,.58.12.78.32,3.83,3.98,10.39,13.87,12.78,22.95Z"/>
  </g>
</svg>