<?xml version="1.0" encoding="UTF-8"?>
<svg id="Layer_1" data-name="Layer 1" xmlns="http://www.w3.org/2000/svg" viewBox="0 0 36 36">
  <path id="path" d="M18,35.64c-9.74,0-17.64-7.89-17.64-17.63C.36,8.26,8.26.37,18,.36s17.64,7.89,17.64,17.63h0c-.01,9.74-7.9,17.62-17.63,17.64Z" fill="#1948ff"/>
  <path id="path-2" d="M13.5,24.86v-10.46h-2.79v10.46h2.79ZM12.06,12.63c1.01-.07,1.77-.95,1.7-1.96-.07-1.01-.95-1.77-1.96-1.7-.96.07-1.71.87-1.71,1.83,0,1.01.8,1.83,1.81,1.83.04,0,.09,0,.13,0h.02Z" fill="#fff"/>
  <path id="path-3" d="M16.29,24.86h2.79v-6.28c0-.32.7-2.09,2.09-2.09,1.03-.12,1.97.62,2.09,1.65.02.15.02.3,0,.44v6.28h2.79v-6.28c0-3.25-1.17-4.19-3.49-4.19-1.9,0-3.02.67-3.49,1.4h0v-1.4h-2.79v10.46Z" fill="#fff"/>
</svg>