<?xml version="1.0" encoding="UTF-8"?>
<svg id="Layer_1" xmlns="http://www.w3.org/2000/svg" version="1.1" viewBox="0 0 98 98">
  <!-- Generator: Adobe Illustrator 29.6.0, SVG Export Plug-In . SVG Version: 2.1.1 Build 207)  -->
  <defs>
    <style>
      .st0 {
        fill: #393337;
      }

      .st1 {
        fill: #00efd2;
      }
    </style>
  </defs>
  <g id="Group_2221">
    <g id="Ellipse_1">
      <path class="st0" d="M49,95c-25.4,0-46-20.6-46-46S23.6,3,49,3s46,20.6,46,46-20.6,46-46,46Z"/>
      <path class="st1" d="M49,5c24.3,0,44,19.7,44,44s-19.7,44-44,44S5,73.3,5,49,24.7,5,49,5M49,1C22.5,1,1,22.5,1,49s21.5,48,48,48,48-21.5,48-48S75.5,1,49,1h0Z"/>
    </g>
    <g id="Group_2220">
      <path id="Path_651" class="st1" d="M74,31.2c0,0-.2,0-.3,0H23.9c0,0-.2,0-.3,0-1.2.1-2.1,1.2-1.9,2.4.1,1,.9,1.8,1.9,1.9l14.8,1.8c.2,0,.4,0,.6.2,1.3.4,2.1,1.6,2.2,2.9.4,5.5.1,11-.7,16.4-1.2,7.1-3.1,14.1-4.4,21.1,0,.2,0,.5,0,.7.2,1.4,1.4,2.4,2.8,2.2.7,0,1.4-.5,1.8-1.1.1-.2.3-.4.3-.7.7-2.3,5.2-17.5,5.8-19.7,0-.2.2-.4.3-.6,0-.1.2-.2.3-.3.8-.6,1.9-.6,2.7,0,0,.1.2.2.3.3.1.2.2.4.3.6l5.8,19.7c0,.2.2.5.3.7.8,1.1,2.4,1.4,3.5.6.6-.4,1-1.1,1.1-1.8,0-.2,0-.5,0-.7-1.3-7.1-3.2-14-4.4-21.1-.8-5.4-1-10.9-.7-16.4,0-1.3.9-2.5,2.2-2.9.2,0,.4-.1.6-.2l15-1.8c.2,0,.5-.1.7-.2,1.1-.6,1.5-1.9.9-3-.3-.6-1-1-1.7-1.1h0Z"/>
      <circle id="Ellipse_2" class="st1" cx="48.8" cy="23.1" r="5.7"/>
    </g>
  </g>
</svg>