<?xml version="1.0" encoding="UTF-8"?>
<svg id="Layer_1" data-name="Layer 1" xmlns="http://www.w3.org/2000/svg" viewBox="0 0 36 36">
  <path id="path-6" d="M18,35.63c-9.74,0-17.63-7.89-17.63-17.63S8.26.37,18,.37c9.74,0,17.63,7.89,17.63,17.63h0c-.01,9.73-7.9,17.62-17.63,17.63Z" fill="#1948ff"/>
  <path id="path-7" d="M22.18,14.92h-2.99v-2.18c0-.67.69-.82,1.02-.82h1.93v-2.95h-2.21c-1.87-.19-3.52,1.17-3.71,3.04-.02.19-.02.37,0,.56v2.36h-2.19v3.04h2.19v8.19h2.98v-8.19h2.53l.46-3.04Z" fill="#fff" fill-rule="evenodd"/>
</svg>