<svg id="Layer_1" data-name="Layer 1" xmlns="http://www.w3.org/2000/svg" width="17.8" height="17.8" viewBox="0 0 17.8 17.8"><defs><style>.cls-1{fill:#fff;}</style></defs><path id="path-6" class="cls-1" d="M8.89.1A8.8,8.8,0,1,0,17.7,8.89,8.8,8.8,0,0,0,8.89.1Zm5,11.17a11.23,11.23,0,0,0,.29-2.38A12.63,12.63,0,0,0,14,6.51h1.9a7.32,7.32,0,0,1,0,4.76Zm-12,0a7.32,7.32,0,0,1,0-4.76H3.85a12.63,12.63,0,0,0-.23,2.38,11.23,11.23,0,0,0,.23,2.38ZM5,8.89a11.19,11.19,0,0,1,.25-2.38H8.2v4.76H5.32A10.09,10.09,0,0,1,5,8.89Zm4.6-7a5.39,5.39,0,0,1,2.5,3.26H9.6Zm-1.41,0V5.12H5.69A5.34,5.34,0,0,1,8.2,1.91Zm0,10.78v3.19a5.83,5.83,0,0,1-2.43-3.19Zm1.41,3.2V12.66H12a5.77,5.77,0,0,1-2.42,3.19Zm0-4.6V6.49h2.93a11.19,11.19,0,0,1,.26,2.38,10.1,10.1,0,0,1-.32,2.38ZM15.23,5.1h-1.6a9.62,9.62,0,0,0-1.35-2.77,7.4,7.4,0,0,1,2.94,2.8ZM5.57,2.34A9.54,9.54,0,0,0,4.18,5.12H2.59A7.41,7.41,0,0,1,5.53,2.37ZM2.63,12.66h1.7a10.48,10.48,0,0,0,1.48,2.88,7.32,7.32,0,0,1-3.18-2.88Zm9.46,2.86a10.17,10.17,0,0,0,1.41-2.86h1.7A7.34,7.34,0,0,1,12,15.52Z"/></svg>