<?xml version="1.0" encoding="UTF-8"?>
<svg id="Layer_2" data-name="Layer 2" xmlns="http://www.w3.org/2000/svg" viewBox="0 0 100.26 64.13">
  <g id="Layer_1-2" data-name="Layer 1" fill="#00EFD2">
    <g>
      <path d="M71.42,36.46L55.81,2.39c-.64-1.56-1.81-2.39-3.39-2.39h-.22c-1.56,0-2.72.8-3.43,2.36l-15.61,34.14c-.23.47-.35.96-.35,1.48,0,1.51,1.22,2.73,2.73,2.73,1.26,0,2.27-.71,2.77-1.93l3.82-8.52h20.15l3.81,8.41c.57,1.3,1.6,2.04,2.83,2.04,1.57,0,2.84-1.27,2.84-2.84,0-.41-.11-.88-.34-1.41ZM59.9,24.8h-15.39l7.69-17.11,7.69,17.11Z"/>
      <path d="M99.47,48.92l-10.61-10.61c-1.05-1.05-2.76-1.05-3.82,0-1.05,1.05-1.05,2.76,0,3.82l6,6H9.22l6-6c1.05-1.05,1.05-2.76,0-3.82-1.05-1.05-2.76-1.05-3.82,0L.79,48.92c-1.05,1.05-1.05,2.76,0,3.82l10.61,10.61c.53.53,1.22.79,1.91.79s1.38-.26,1.91-.79c1.05-1.05,1.05-2.76,0-3.82l-6-6h81.82l-6,6c-1.05,1.05-1.05,2.76,0,3.82.53.53,1.22.79,1.91.79s1.38-.26,1.91-.79l10.61-10.61c1.05-1.05,1.05-2.76,0-3.82Z"/>
    </g>
  </g>
</svg>