<?xml version="1.0" encoding="UTF-8"?>
<svg id="Layer_2" data-name="Layer 2" xmlns="http://www.w3.org/2000/svg" viewBox="0 0 65.31 65.31">
  <g id="Layer_1-2" data-name="Layer 1" fill="#00EFD2">
    <g>
      <g id="g1723">
        <path d="M54.7,65.31c-.69,0-1.38-.26-1.91-.79l-10.16-10.16-4.68,4.68c-.66.66-1.62.93-2.53.72-.91-.21-1.65-.89-1.94-1.77l-10.55-31.64c-.32-.97-.07-2.04.65-2.76s1.79-.97,2.76-.65l31.64,10.55c.89.3,1.56,1.03,1.77,1.94s-.06,1.87-.72,2.53l-4.68,4.68,10.16,10.16c1.05,1.05,1.05,2.76,0,3.82l-7.91,7.91c-.53.53-1.22.79-1.91.79ZM42.63,47.84c.69,0,1.38.26,1.91.79l10.16,10.16,4.09-4.09-10.16-10.16c-.51-.51-.79-1.19-.79-1.91s.29-1.4.79-1.91l3.5-3.5-22.37-7.46,7.46,22.37,3.5-3.5c.53-.53,1.22-.79,1.91-.79Z"/>
      </g>
      <g id="g1727">
        <path d="M25.07,16.59c-1.49,0-2.7-1.21-2.7-2.7V2.7c0-1.49,1.21-2.7,2.7-2.7s2.7,1.21,2.7,2.7v11.19c0,1.49-1.21,2.7-2.7,2.7Z"/>
      </g>
      <g id="g1731">
        <path d="M17.16,19.86c-.69,0-1.38-.26-1.91-.79l-7.91-7.91c-1.05-1.05-1.05-2.76,0-3.82,1.05-1.05,2.76-1.05,3.82,0l7.91,7.91c1.05,1.05,1.05,2.76,0,3.82-.53.53-1.22.79-1.91.79Z"/>
      </g>
      <g id="g1735">
        <path d="M9.25,43.59c-.69,0-1.38-.26-1.91-.79-1.05-1.05-1.05-2.76,0-3.82l7.91-7.91c1.05-1.05,2.76-1.05,3.82,0,1.05,1.05,1.05,2.76,0,3.82l-7.91,7.91c-.53.53-1.22.79-1.91.79Z"/>
      </g>
      <g id="g1739">
        <path d="M32.98,19.86c-.69,0-1.38-.26-1.91-.79-1.05-1.05-1.05-2.76,0-3.82l7.91-7.91c1.05-1.05,2.76-1.05,3.82,0s1.05,2.76,0,3.82l-7.91,7.91c-.53.53-1.22.79-1.91.79Z"/>
      </g>
      <g id="g1745">
        <g id="g1751">
          <path d="M13.89,27.77H2.7c-1.49,0-2.7-1.21-2.7-2.7s1.21-2.7,2.7-2.7h11.19c1.49,0,2.7,1.21,2.7,2.7s-1.21,2.7-2.7,2.7Z"/>
        </g>
      </g>
    </g>
  </g>
</svg>