<?xml version="1.0" encoding="UTF-8"?>
<svg id="Layer_1" data-name="Layer 1" xmlns="http://www.w3.org/2000/svg" viewBox="0 0 36 36">
  <path id="path-4" d="M18,35.63c-9.74,0-17.63-7.9-17.63-17.64S8.27.36,18,.37c9.74,0,17.63,7.9,17.63,17.63-.01,9.74-7.9,17.62-17.64,17.63Z" fill="#1948ff"/>
  <path d="M19.6,16.68l6.27-7.29h-1.49l-5.45,6.33-4.35-6.33h-5.02l6.58,9.57-6.58,7.64h1.49l5.75-6.68,4.59,6.68h5.02l-6.82-9.93h0ZM17.57,19.05l-.67-.95-5.3-7.58h2.28l4.28,6.12.67.95,5.56,7.96h-2.28l-4.54-6.49h0Z" fill="#fff"/>
</svg>