<?xml version="1.0" encoding="UTF-8"?>
<svg id="Layer_2" data-name="Layer 2" xmlns="http://www.w3.org/2000/svg" viewBox="0 0 27.25 27.25">
  <g id="Layer_1-2" data-name="Layer 1" fill="#ffffff">
    <path d="M15.39,13.62L26.88,2.13c.49-.49.49-1.28,0-1.77s-1.28-.49-1.77,0l-11.49,11.49L2.13.37C1.65-.12.85-.12.37.37S-.12,1.65.37,2.13l11.49,11.49L.37,25.11c-.49.49-.49,1.28,0,1.77.24.24.56.37.88.37s.64-.12.88-.37l11.49-11.49,11.49,11.49c.24.24.56.37.88.37s.64-.12.88-.37c.49-.49.49-1.28,0-1.77l-11.49-11.49Z"/>
  </g>
</svg>