<?xml version="1.0" encoding="UTF-8"?>
<svg id="Layer_2" data-name="Layer 2" xmlns="http://www.w3.org/2000/svg" viewBox="0 0 73.12 53.43">
  <g id="Layer_1-2" data-name="Layer 1" fill="#00EFD2">
    <g>
      <path d="M21.52,2.86H0v50.57h20.12s26.65,0,26.65-25.29c0-14.04-11.83-25.29-25.24-25.29ZM18.18,41.39h-9.85V10.47h10.44c8.58,0,19.47,4.28,19.47,16.17,0,13.75-20.06,14.75-20.06,14.75Z"/>
      <path d="M53.58,53.43h10.03l-.57-31.63h9.17v-7.27h-9.47v-4.94c0-1.27,2.47-3.67,6.54,0l3.84-5.96s-4.38-3.64-8.2-3.64c-3.45,0-9.59,1.92-9.59,9.9v4.63h-6.25v7.27h5.23l-.73,31.63Z"/>
    </g>
  </g>
</svg>