<?xml version="1.0" encoding="UTF-8"?>
<svg id="Layer_1" data-name="Layer 1" xmlns="http://www.w3.org/2000/svg" viewBox="0 0 36 36">
  <g id="Group_2332" data-name="Group 2332">
    <path id="path-8" d="M18,35.61c-9.73,0-17.62-7.88-17.62-17.61C.38,8.27,8.27.39,18,.39s17.62,7.88,17.62,17.61h0c0,9.72-7.89,17.61-17.61,17.62Z" fill="#1948ff"/>
    <g id="Instagram">
      <path id="Path_3" data-name="Path 3" d="M18,11.19c1.1-.04,2.2-.01,3.3.09.53,0,1.06.09,1.56.27.69.32,1.24.87,1.56,1.56.19.5.28,1.03.27,1.56,0,.82.09,1.1.09,3.3.04,1.1.01,2.2-.09,3.3,0,.53-.09,1.06-.27,1.56-.32.69-.87,1.24-1.56,1.56-.5.19-1.03.28-1.56.27-.82,0-1.1.09-3.3.09-1.1.04-2.2.01-3.3-.09-.53,0-1.06-.09-1.56-.27-.69-.32-1.24-.87-1.56-1.56-.19-.5-.28-1.03-.27-1.56,0-.82-.09-1.1-.09-3.3-.04-1.1-.01-2.2.09-3.3,0-.53.09-1.06.27-1.56.16-.34.38-.65.64-.92.22-.32.54-.55.92-.64.5-.19,1.03-.28,1.56-.27,1.1-.1,2.2-.13,3.3-.09M18,9.73c-1.13-.04-2.27,0-3.39.09-.69,0-1.37.12-2.02.37-.56.18-1.06.5-1.47.92-.42.41-.74.91-.92,1.47-.29.63-.41,1.33-.37,2.02-.1,1.13-.13,2.26-.09,3.39-.04,1.13,0,2.27.09,3.39,0,.69.12,1.37.37,2.02.18.56.5,1.06.92,1.47.41.42.91.74,1.47.92.64.24,1.33.37,2.02.37,1.13.1,2.26.13,3.39.09,1.13.04,2.27,0,3.39-.09.69,0,1.37-.12,2.02-.37,1.12-.39,2-1.26,2.38-2.38.24-.64.37-1.33.37-2.02,0-.92.09-1.19.09-3.39.04-1.13,0-2.27-.09-3.39,0-.69-.12-1.37-.37-2.02-.18-.56-.5-1.06-.92-1.47-.41-.42-.91-.74-1.47-.92-.64-.24-1.33-.37-2.02-.37-1.13-.1-2.26-.13-3.39-.09M18,13.76c-2.29-.04-4.18,1.79-4.22,4.08,0,.05,0,.09,0,.14,0,2.33,1.89,4.22,4.22,4.22s4.22-1.89,4.22-4.22-1.89-4.22-4.22-4.22M18,20.73c-1.49.03-2.72-1.15-2.75-2.64,0-.04,0-.07,0-.11-.03-1.49,1.15-2.72,2.64-2.75.04,0,.07,0,.11,0,1.49-.03,2.72,1.16,2.75,2.65,0,.03,0,.07,0,.1.03,1.49-1.16,2.72-2.65,2.75-.03,0-.07,0-.1,0M22.4,12.57c-.56,0-1.01.45-1.01,1.01s.45,1.01,1.01,1.01,1.01-.45,1.01-1.01h0c0-.56-.45-1-1.01-1.01" fill="#fff" fill-rule="evenodd"/>
    </g>
  </g>
</svg>