<?xml version="1.0" encoding="UTF-8"?>
<svg id="Layer_2" data-name="Layer 2" xmlns="http://www.w3.org/2000/svg" viewBox="0 0 95.98 53.55">
  <g id="Layer_1-2" data-name="Layer 1" fill="#00EFD2">
    <g>
      <path d="M45.28,49.2L66.58,2.62c.75-1.65,1.88-2.62,3.75-2.62h.3c1.8,0,3,.97,3.67,2.62l21.3,46.5c.23.52.38,1.05.38,1.5,0,1.57-1.27,2.85-2.85,2.85-1.42,0-2.4-.97-2.92-2.17l-5.47-12.07h-28.8l-5.48,12.22c-.52,1.28-1.5,2.03-2.85,2.03-1.5,0-2.7-1.2-2.7-2.7,0-.45.08-.97.38-1.57ZM82.4,33.82l-12.07-26.85-12.07,26.85h24.15Z"/>
      <path d="M38.61,49.29L23,15.23c-.64-1.56-1.81-2.39-3.39-2.39h-.22c-1.56,0-2.72.8-3.43,2.36L.35,49.34c-.23.47-.35.96-.35,1.48,0,1.51,1.22,2.73,2.73,2.73,1.26,0,2.27-.71,2.77-1.93l3.82-8.52h20.15l3.81,8.41c.57,1.3,1.6,2.04,2.83,2.04,1.57,0,2.84-1.27,2.84-2.84,0-.41-.11-.88-.34-1.41ZM27.09,37.64h-15.39l7.69-17.11,7.69,17.11Z"/>
    </g>
  </g>
</svg>