<?xml version="1.0" encoding="UTF-8"?>
<svg id="Layer_2" data-name="Layer 2" xmlns="http://www.w3.org/2000/svg" viewBox="0 0 79.56 42.53">
  <g id="Layer_1-2" data-name="Layer 1" fill="#00EFD2">
    <g>
      <path d="M58.29,0h-7.41c-1.7,0-2.75,1.05-2.75,2.75s1.05,2.75,2.75,2.75h7.41c8.69,0,15.76,7.07,15.76,15.76s-7.07,15.76-15.76,15.76h-7.41c-1.7,0-2.75,1.05-2.75,2.75s1.05,2.75,2.75,2.75h7.41c11.73,0,21.27-9.54,21.27-21.27S70.02,0,58.29,0Z"/>
      <path d="M28.67,0h-7.41C9.54,0,0,9.54,0,21.27s9.54,21.27,21.27,21.27h7.41c1.7,0,2.75-1.05,2.75-2.75s-1.05-2.75-2.75-2.75h-7.41c-8.69,0-15.76-7.07-15.76-15.76s7.07-15.76,15.76-15.76h7.41c1.7,0,2.75-1.05,2.75-2.75s-1.05-2.75-2.75-2.75Z"/>
      <path d="M58.29,18.51H21.27c-1.7,0-2.75,1.05-2.75,2.75s1.05,2.75,2.75,2.75h37.03c1.7,0,2.75-1.05,2.75-2.75s-1.05-2.75-2.75-2.75Z"/>
    </g>
  </g>
</svg>