<?xml version="1.0" encoding="UTF-8"?>
<svg id="Layer_2" data-name="Layer 2" xmlns="http://www.w3.org/2000/svg" viewBox="0 0 1211.34 175">
  <g id="Layer_1-2" data-name="Layer 1">
    <g id="modNearshore-Desktop">
      <g>
        <circle id="Ellipse_28-5" data-name="Ellipse 28-5" cx="1123.84" cy="87.5" r="87.5" fill="#00efd2"/>
        <g id="Deep_Technical_Expertise" data-name="Deep Technical Expertise">
          <g>
            <path d="M1079.66,68.44l7.12-17.42h2.65l7.12,17.42h-3.9l-4.53-12.12-4.58,12.12h-3.9ZM1084.56,65.27l1.12-3.2h4.88l1.15,3.2h-7.15Z" fill="#1948ff"/>
            <path d="M1102.79,73.82c-1.87,0-3.33-.33-4.4-.99-1.07-.66-1.6-1.55-1.6-2.69,0-.12,0-.25.02-.39s.04-.28.08-.41l3.6-2.12.78.98-1.5,1.85s-.03.07-.03.1v.1c0,.38.27.69.81.91.54.23,1.29.34,2.24.34.77,0,1.34-.1,1.72-.29.38-.19.58-.45.58-.76,0-.18-.05-.33-.15-.44-.1-.11-.27-.2-.5-.27-.23-.08-.55-.15-.96-.21-.41-.07-.91-.13-1.51-.2-.75-.08-1.5-.24-2.24-.46-.74-.23-1.36-.56-1.85-1.01-.49-.45-.74-1.05-.74-1.8,0-.68.23-1.3.69-1.86.46-.56,1.07-1.02,1.84-1.39l1.52,1.32c-.4.05-.71.18-.94.4-.22.22-.34.47-.34.75,0,.25.1.45.31.6.21.15.51.26.9.34.39.07.85.15,1.39.21.88.1,1.69.22,2.42.35s1.37.32,1.9.56c.53.24.95.57,1.24,1,.29.42.44.98.44,1.66,0,1.23-.5,2.18-1.49,2.84-.99.66-2.4.99-4.24.99ZM1102.54,65.14c-1.05,0-1.98-.2-2.78-.6s-1.42-.95-1.86-1.64c-.44-.69-.66-1.48-.66-2.36,0-.95.24-1.77.71-2.48s1.11-1.24,1.9-1.62c.79-.38,1.65-.58,2.56-.58s1.79.19,2.57.58c.78.38,1.42.93,1.91,1.65.49.72.74,1.57.74,2.55,0,.9-.21,1.69-.64,2.36s-1.02,1.2-1.79,1.58-1.66.56-2.67.56ZM1102.46,62.42c.62,0,1.06-.19,1.34-.56.28-.38.41-.82.41-1.34s-.15-.97-.46-1.31-.74-.51-1.29-.51-.98.17-1.3.51c-.32.34-.48.78-.48,1.31s.14.96.42,1.34.73.56,1.35.56ZM1106.79,58.82l-2.48-1.58,2.92-2.35,1.78,2.12-2.22,1.8Z" fill="#1948ff"/>
            <path d="M1109.93,54.32v-3.3h3.58v3.3h-3.58ZM1109.98,68.44v-12.33h3.43v12.33h-3.43Z" fill="#1948ff"/>
            <path d="M1118.66,68.69c-.87,0-1.59-.26-2.17-.79s-.88-1.36-.88-2.51v-14.38h3.42v13.7c0,.3.08.51.23.64.15.12.34.19.58.19.15,0,.29-.02.42-.05.13-.03.27-.07.42-.1v2.92c-.37.13-.72.23-1.08.29-.35.06-.67.09-.95.09Z" fill="#1948ff"/>
            <path d="M1122.03,54.32v-3.3h3.58v3.3h-3.58ZM1122.08,68.44v-12.33h3.43v12.33h-3.43Z" fill="#1948ff"/>
            <path d="M1132.33,68.69c-1.07,0-1.99-.28-2.76-.84-.77-.56-1.36-1.32-1.76-2.29-.4-.97-.6-2.07-.6-3.3,0-1.37.23-2.53.69-3.48.46-.95,1.08-1.68,1.86-2.18s1.64-.75,2.58-.75c.63,0,1.23.13,1.79.39.56.26,1.04.67,1.45,1.23.41.56.68,1.3.81,2.21l-.65-.35v-8.32h3.42v17.42h-3.42v-3.17l.75-.55c-.2,1.07-.53,1.89-.98,2.46-.45.58-.95.97-1.5,1.19-.55.22-1.11.33-1.67.33ZM1133.36,65.54c.55,0,1.02-.13,1.42-.4s.71-.65.92-1.14c.22-.49.33-1.07.33-1.74s-.11-1.24-.33-1.73-.52-.86-.92-1.14-.88-.41-1.42-.41-1.03.13-1.44.4c-.41.27-.73.64-.95,1.12s-.34,1.07-.34,1.75.11,1.27.34,1.76c.22.49.54.87.95,1.12.41.26.89.39,1.44.39Z" fill="#1948ff"/>
            <path d="M1145.63,68.69c-.9,0-1.71-.17-2.42-.5s-1.28-.81-1.7-1.44c-.42-.62-.62-1.35-.62-2.16,0-.72.15-1.33.45-1.85.3-.52.7-.92,1.2-1.2.4-.23.85-.4,1.35-.5s1.03-.15,1.58-.15h3.78v2.52h-3.28c-.23,0-.45.02-.65.06-.2.04-.38.12-.55.24-.13.1-.24.23-.31.38-.07.15-.11.32-.11.5,0,.42.16.75.49.99.33.24.76.36,1.31.36.52,0,.99-.11,1.41-.33.42-.22.77-.52,1.02-.9.26-.38.39-.82.39-1.3l.8,1.88c-.27.87-.62,1.55-1.06,2.04s-.92.84-1.45,1.05-1.06.31-1.61.31ZM1149.21,68.44l-.25-1.65v-6.15c0-.67-.22-1.15-.66-1.45-.44-.3-1.01-.45-1.71-.45-.65,0-1.33.12-2.04.38-.71.25-1.31.58-1.81.98l-1.6-2.38c.93-.68,1.86-1.16,2.78-1.44.92-.27,1.91-.41,2.97-.41,1.72,0,3.06.43,4.03,1.28.97.85,1.45,2.02,1.45,3.5v7.8h-3.15Z" fill="#1948ff"/>
            <path d="M1159.03,68.69c-1.07,0-1.99-.28-2.76-.84-.77-.56-1.36-1.32-1.76-2.29-.4-.97-.6-2.07-.6-3.3,0-1.37.23-2.53.69-3.48.46-.95,1.08-1.68,1.86-2.18s1.64-.75,2.58-.75c.63,0,1.23.13,1.79.39.56.26,1.04.67,1.45,1.23.41.56.68,1.3.81,2.21l-.65-.35v-8.32h3.42v17.42h-3.42v-3.17l.75-.55c-.2,1.07-.53,1.89-.98,2.46-.45.58-.95.97-1.5,1.19-.55.22-1.11.33-1.67.33ZM1160.06,65.54c.55,0,1.02-.13,1.42-.4.4-.27.71-.65.92-1.14.22-.49.33-1.07.33-1.74s-.11-1.24-.33-1.73-.53-.86-.92-1.14c-.4-.27-.88-.41-1.42-.41s-1.03.13-1.44.4c-.41.27-.73.64-.95,1.12-.23.48-.34,1.07-.34,1.75s.11,1.27.34,1.76c.22.49.54.87.95,1.12.41.26.89.39,1.44.39Z" fill="#1948ff"/>
            <path d="M1119.05,99.54l2.55-6.15-4.6-11.28h3.75l2.67,7.85,2.73-7.85h3.7l-7.1,17.43h-3.7Z" fill="#1948ff"/>
            <path d="M1061,120.87c-1.67,0-3.13-.38-4.4-1.15-1.27-.77-2.25-1.83-2.96-3.2-.71-1.37-1.06-2.97-1.06-4.8s.35-3.43,1.06-4.79c.71-1.36,1.7-2.42,2.96-3.19,1.27-.77,2.73-1.15,4.4-1.15,1.88,0,3.5.47,4.86,1.41,1.36.94,2.34,2.24,2.94,3.89l-3.38,1.22c-.35-.98-.9-1.75-1.66-2.29-.76-.54-1.68-.81-2.76-.81-.98,0-1.84.23-2.58.69s-1.3,1.11-1.69,1.96-.59,1.87-.59,3.05.2,2.2.59,3.06c.39.86.95,1.52,1.69,1.98.73.46,1.59.69,2.58.69,1.08,0,2-.27,2.76-.83.76-.55,1.31-1.31,1.66-2.27l3.38,1.23c-.6,1.63-1.58,2.92-2.94,3.88s-2.98,1.42-4.86,1.42Z" fill="#1948ff"/>
            <path d="M1075.97,120.69c-1.2,0-2.28-.27-3.23-.83-.95-.55-1.7-1.31-2.24-2.29-.54-.98-.81-2.08-.81-3.31s.27-2.36.81-3.33c.54-.97,1.28-1.72,2.23-2.26.94-.54,2.02-.81,3.24-.81s2.27.27,3.21.81c.94.54,1.68,1.3,2.23,2.26.54.97.81,2.08.81,3.33s-.27,2.34-.81,3.31c-.54.97-1.28,1.74-2.23,2.29-.94.55-2.01.83-3.21.83ZM1075.97,117.69c.6,0,1.11-.13,1.52-.4.42-.27.73-.66.95-1.18.22-.52.33-1.13.33-1.85s-.11-1.35-.33-1.85-.53-.88-.95-1.15c-.42-.27-.92-.4-1.52-.4s-1.11.13-1.54.4c-.42.27-.75.65-.97,1.15s-.34,1.12-.34,1.85.11,1.33.34,1.85c.22.52.55.91.97,1.18.43.27.94.4,1.54.4Z" fill="#1948ff"/>
            <path d="M1083.92,120.44v-12.33h3.42v2.85l-.5.02c.22-.78.54-1.4.96-1.86.43-.46.91-.78,1.46-.98.55-.19,1.1-.29,1.65-.29,1.42,0,2.52.4,3.31,1.19.79.79,1.19,1.88,1.19,3.26v8.12h-3.45v-6.85c0-.95-.17-1.65-.51-2.09-.34-.44-.88-.66-1.61-.66-.55,0-1.01.13-1.39.4-.38.27-.65.68-.84,1.23-.18.55-.27,1.27-.27,2.15v5.83h-3.42Z" fill="#1948ff"/>
            <path d="M1098.42,120.44v-9.65h-2.08v-2.68h2.08v-.82c0-.95.25-1.76.76-2.44.51-.68,1.18-1.19,2.01-1.55.83-.36,1.73-.54,2.7-.54,1.13,0,2.09.11,2.88.32.78.22,1.53.53,2.22.95l-1.6,2.45c-.47-.32-.97-.56-1.51-.72s-1.15-.25-1.81-.25c-.78,0-1.35.19-1.7.57-.35.38-.52.88-.52,1.48v.55h4.9l-.02,2.68h-4.88v9.65h-3.42ZM1105.47,120.44v-12.33h3.42v12.33h-3.42Z" fill="#1948ff"/>
            <path d="M1115.4,120.69c-.9,0-1.71-.17-2.42-.5-.72-.33-1.28-.81-1.7-1.44-.42-.62-.62-1.35-.62-2.16,0-.72.15-1.33.45-1.85.3-.52.7-.92,1.2-1.2.4-.23.85-.4,1.35-.5s1.03-.15,1.58-.15h3.77v2.52h-3.27c-.23,0-.45.02-.65.06s-.38.12-.55.24c-.13.1-.24.23-.31.38s-.11.32-.11.5c0,.42.16.75.49.99s.76.36,1.31.36c.52,0,.99-.11,1.41-.33.43-.22.77-.52,1.03-.9.26-.38.39-.82.39-1.3l.8,1.88c-.27.87-.62,1.55-1.06,2.04s-.92.84-1.45,1.05c-.52.21-1.06.31-1.61.31ZM1118.97,120.44l-.25-1.65v-6.15c0-.67-.22-1.15-.66-1.45s-1.01-.45-1.71-.45c-.65,0-1.33.12-2.04.38-.71.25-1.31.58-1.81.98l-1.6-2.38c.93-.68,1.86-1.16,2.78-1.44.92-.27,1.91-.41,2.97-.41,1.72,0,3.06.43,4.03,1.28.97.85,1.45,2.02,1.45,3.5v7.8h-3.15Z" fill="#1948ff"/>
            <path d="M1131.05,120.69c-.55,0-1.1-.11-1.66-.33-.56-.22-1.06-.61-1.5-1.19-.44-.57-.77-1.4-.99-2.46l.75.55v3.17h-3.4v-17.42h3.4v8.32l-.65.35c.15-.92.42-1.65.83-2.21.4-.56.88-.97,1.45-1.23.57-.26,1.16-.39,1.77-.39.95,0,1.81.25,2.59.75.77.5,1.4,1.23,1.86,2.18.47.95.7,2.11.7,3.48,0,1.23-.2,2.33-.61,3.3-.41.97-1,1.73-1.76,2.29-.77.56-1.69.84-2.78.84ZM1130.05,117.54c.55,0,1.03-.13,1.44-.39.41-.26.72-.63.94-1.12.22-.49.33-1.08.33-1.76s-.11-1.27-.33-1.75-.53-.86-.94-1.12-.89-.4-1.44-.4-1.03.14-1.44.41-.72.65-.94,1.14-.33,1.06-.33,1.73.11,1.25.33,1.74c.22.49.53.87.94,1.14s.89.4,1.44.4Z" fill="#1948ff"/>
            <path d="M1137.8,106.32v-3.3h3.58v3.3h-3.58ZM1137.85,120.44v-12.33h3.43v12.33h-3.43Z" fill="#1948ff"/>
            <path d="M1146.52,120.69c-.87,0-1.59-.26-2.17-.79s-.88-1.36-.88-2.51v-14.38h3.42v13.7c0,.3.08.51.23.64.15.12.34.19.58.19.15,0,.29-.02.42-.05.13-.03.28-.07.43-.1v2.92c-.37.13-.73.23-1.08.29-.35.06-.67.09-.95.09Z" fill="#1948ff"/>
            <path d="M1149.9,106.32v-3.3h3.58v3.3h-3.58ZM1149.95,120.44v-12.33h3.42v12.33h-3.42Z" fill="#1948ff"/>
            <path d="M1160.2,120.69c-1.07,0-1.99-.28-2.76-.84-.77-.56-1.36-1.32-1.76-2.29-.4-.97-.6-2.07-.6-3.3,0-1.37.23-2.53.69-3.48.46-.95,1.08-1.68,1.86-2.18s1.64-.75,2.58-.75c.63,0,1.23.13,1.79.39.56.26,1.04.67,1.45,1.23.41.56.68,1.3.81,2.21l-.65-.35v-8.32h3.42v17.42h-3.42v-3.17l.75-.55c-.2,1.07-.53,1.89-.98,2.46-.45.58-.95.97-1.5,1.19-.55.22-1.11.33-1.67.33ZM1161.22,117.54c.55,0,1.02-.13,1.42-.4.4-.27.71-.65.92-1.14.22-.49.33-1.07.33-1.74s-.11-1.24-.33-1.73-.53-.86-.92-1.14c-.4-.27-.88-.41-1.42-.41s-1.03.13-1.44.4c-.41.27-.73.64-.95,1.12-.23.48-.34,1.07-.34,1.75s.11,1.27.34,1.76c.22.49.54.87.95,1.12.41.26.89.39,1.44.39Z" fill="#1948ff"/>
            <path d="M1173.5,120.69c-.9,0-1.71-.17-2.42-.5s-1.28-.81-1.7-1.44-.62-1.35-.62-2.16c0-.72.15-1.33.45-1.85.3-.52.7-.92,1.2-1.2.4-.23.85-.4,1.35-.5s1.03-.15,1.58-.15h3.78v2.52h-3.28c-.23,0-.45.02-.65.06-.2.04-.38.12-.55.24-.13.1-.24.23-.31.38s-.11.32-.11.5c0,.42.16.75.49.99s.76.36,1.31.36c.52,0,.99-.11,1.41-.33.42-.22.77-.52,1.02-.9.26-.38.39-.82.39-1.3l.8,1.88c-.27.87-.62,1.55-1.06,2.04s-.92.84-1.45,1.05c-.52.21-1.06.31-1.61.31ZM1177.07,120.44l-.25-1.65v-6.15c0-.67-.22-1.15-.66-1.45-.44-.3-1.01-.45-1.71-.45-.65,0-1.33.12-2.04.38-.71.25-1.31.58-1.81.98l-1.6-2.38c.93-.68,1.86-1.16,2.78-1.44.92-.27,1.91-.41,2.97-.41,1.72,0,3.06.43,4.03,1.28.97.85,1.45,2.02,1.45,3.5v7.8h-3.15Z" fill="#1948ff"/>
            <path d="M1186.9,120.69c-1.07,0-1.99-.28-2.76-.84-.77-.56-1.36-1.32-1.76-2.29-.4-.97-.6-2.07-.6-3.3,0-1.37.23-2.53.69-3.48.46-.95,1.08-1.68,1.86-2.18s1.64-.75,2.58-.75c.63,0,1.23.13,1.79.39.56.26,1.04.67,1.45,1.23.41.56.68,1.3.81,2.21l-.65-.35v-8.32h3.42v17.42h-3.42v-3.17l.75-.55c-.2,1.07-.53,1.89-.98,2.46-.45.58-.95.97-1.5,1.19-.55.22-1.11.33-1.67.33ZM1187.92,117.54c.55,0,1.02-.13,1.42-.4.4-.27.71-.65.92-1.14.22-.49.33-1.07.33-1.74s-.11-1.24-.33-1.73-.53-.86-.92-1.14c-.4-.27-.88-.41-1.42-.41s-1.03.13-1.44.4c-.41.27-.73.64-.95,1.12-.23.48-.34,1.07-.34,1.75s.11,1.27.34,1.76c.22.49.54.87.95,1.12.41.26.89.39,1.44.39Z" fill="#1948ff"/>
          </g>
        </g>
      </g>
      <g>
        <path d="M87.5,175C39.25,175,0,135.75,0,87.5S39.25,0,87.5,0c33.39,0,63.4,18.57,78.33,48.46.49.99.09,2.19-.9,2.68-.99.49-2.19.09-2.68-.9C148,21.72,119.36,4,87.5,4,41.46,4,4,41.46,4,87.5s37.46,83.5,83.5,83.5c1.1,0,2,.9,2,2s-.9,2-2,2Z" fill="#00efd2"/>
        <g id="_" data-name=" " isolation="isolate">
          <g isolation="isolate">
            <path d="M214.46,87.58v-12.12h-12.12v-4.62h12.12v-12.12h4.68v12.12h12.12v4.62h-12.12v12.12h-4.68Z" fill="#00efd2"/>
          </g>
        </g>
        <g id="Deep_Technical_Expertise-2" data-name="Deep Technical Expertise" isolation="isolate">
          <g>
            <path d="M61.03,89.94v-19.52h13.05v3.58h-9.04v4.12h8.51v3.58h-8.51v4.65h9.04v3.58h-13.05Z" fill="#00efd2"/>
            <path d="M75.15,89.94l4.62-6.97-4.62-6.83h4.54l2.66,4.34,2.69-4.34h4.51l-4.65,6.83,4.65,6.97h-4.51l-2.69-4.45-2.69,4.45h-4.51Z" fill="#00efd2"/>
            <path d="M90.97,95.65v-19.52h3.81v3.56l-.84.56c.24-1.19.61-2.11,1.11-2.74.49-.63,1.05-1.07,1.68-1.3s1.25-.35,1.86-.35c1.21,0,2.25.31,3.11.94.86.63,1.52,1.48,1.97,2.56.46,1.08.69,2.31.69,3.7,0,1.51-.26,2.81-.78,3.88-.52,1.07-1.22,1.89-2.09,2.45-.87.56-1.83.84-2.9.84-.69,0-1.35-.14-1.99-.42-.63-.28-1.18-.74-1.62-1.37-.45-.63-.76-1.46-.92-2.46l.73.36v9.32h-3.81ZM97.46,86.72c.62,0,1.15-.15,1.61-.45.46-.3.81-.72,1.05-1.27.24-.55.36-1.2.36-1.95s-.12-1.42-.36-1.97-.59-.97-1.05-1.26c-.46-.29-.99-.43-1.61-.43s-1.15.15-1.61.45c-.46.3-.81.72-1.05,1.26-.24.54-.36,1.19-.36,1.96s.12,1.39.36,1.93c.24.54.59.97,1.05,1.27s.99.46,1.61.46Z" fill="#00efd2"/>
            <path d="M112.5,90.22c-1.23,0-2.29-.2-3.18-.59s-1.61-.92-2.16-1.6c-.55-.67-.95-1.43-1.2-2.28-.25-.85-.38-1.73-.38-2.65s.13-1.75.38-2.6c.25-.86.64-1.64,1.16-2.34.52-.7,1.21-1.26,2.07-1.68s1.89-.63,3.08-.63c1.06,0,2,.18,2.81.55.81.36,1.49.87,2.03,1.51.54.64.95,1.4,1.22,2.28.27.88.41,1.82.41,2.83,0,.17,0,.36-.01.59,0,.22-.03.48-.07.76h-9.24c.11.86.48,1.5,1.09,1.92.62.42,1.35.63,2.21.63.69,0,1.38-.12,2.07-.36.69-.24,1.3-.59,1.82-1.04l1.76,2.69c-.69.49-1.33.88-1.92,1.18-.59.3-1.19.51-1.82.64-.63.13-1.34.2-2.14.2ZM114.96,82.43c.04-.15.07-.3.1-.45.03-.15.04-.29.04-.42,0-.37-.07-.71-.21-1.02s-.33-.57-.57-.8-.53-.4-.87-.52c-.34-.12-.71-.18-1.12-.18-.65,0-1.19.13-1.61.38s-.74.56-.95.94c-.21.37-.35.76-.41,1.15h6.89l-1.29.92Z" fill="#00efd2"/>
            <path d="M120.7,89.94v-13.8h3.86v3.75l-.53.03c.06-.78.28-1.48.69-2.1.4-.62.91-1.1,1.53-1.44.62-.35,1.25-.52,1.9-.52.47,0,.91.07,1.34.2.43.13.89.35,1.37.64l-1.85,3.47c-.21-.13-.47-.25-.8-.35-.33-.1-.66-.15-.99-.15s-.66.07-.98.2c-.32.13-.6.32-.84.57-.24.25-.44.58-.59.99-.09.26-.16.59-.21.99-.05.4-.07.99-.07,1.78v5.74h-3.84Z" fill="#00efd2"/>
            <path d="M132.04,74.12v-3.7h4v3.7h-4ZM132.1,89.94v-13.8h3.84v13.8h-3.84Z" fill="#00efd2"/>
            <path d="M144.75,90.22c-1.23,0-2.29-.2-3.18-.59s-1.61-.92-2.16-1.6c-.55-.67-.95-1.43-1.2-2.28-.25-.85-.38-1.73-.38-2.65s.13-1.75.38-2.6c.25-.86.64-1.64,1.16-2.34.52-.7,1.21-1.26,2.07-1.68s1.89-.63,3.08-.63c1.06,0,2,.18,2.81.55.81.36,1.49.87,2.03,1.51.54.64.95,1.4,1.22,2.28.27.88.41,1.82.41,2.83,0,.17,0,.36-.01.59,0,.22-.03.48-.07.76h-9.24c.11.86.48,1.5,1.09,1.92.62.42,1.35.63,2.21.63.69,0,1.38-.12,2.07-.36.69-.24,1.3-.59,1.82-1.04l1.76,2.69c-.69.49-1.33.88-1.92,1.18-.59.3-1.19.51-1.82.64-.63.13-1.34.2-2.14.2ZM147.22,82.43c.04-.15.07-.3.1-.45.03-.15.04-.29.04-.42,0-.37-.07-.71-.21-1.02s-.33-.57-.57-.8-.53-.4-.87-.52c-.34-.12-.71-.18-1.12-.18-.65,0-1.19.13-1.61.38s-.74.56-.95.94c-.21.37-.35.76-.41,1.15h6.89l-1.29.92Z" fill="#00efd2"/>
            <path d="M152.96,89.94v-13.8h3.84v3.19l-.56.03c.24-.88.6-1.57,1.08-2.09.48-.51,1.02-.88,1.64-1.09.62-.21,1.23-.32,1.85-.32,1.59,0,2.82.44,3.71,1.33.89.89,1.33,2.1,1.33,3.65v9.1h-3.86v-7.67c0-1.06-.19-1.84-.57-2.34s-.98-.74-1.81-.74c-.62,0-1.13.15-1.55.45-.42.3-.73.76-.94,1.37-.21.62-.31,1.42-.31,2.41v6.52h-3.84Z" fill="#00efd2"/>
            <path d="M174.41,90.22c-1.16,0-2.16-.2-3.01-.6-.85-.4-1.56-.94-2.13-1.62-.57-.68-.99-1.45-1.27-2.31-.28-.86-.42-1.75-.42-2.66s.14-1.8.42-2.66c.28-.86.7-1.62,1.27-2.3s1.28-1.21,2.13-1.61,1.85-.6,3.01-.6c1.42,0,2.65.34,3.7,1.01,1.04.67,1.83,1.71,2.35,3.11l-3.36,1.34c-.21-.63-.52-1.15-.94-1.54-.42-.39-1-.59-1.75-.59s-1.28.19-1.72.56-.76.85-.97,1.44c-.21.59-.31,1.2-.31,1.83s.1,1.25.31,1.85c.21.6.53,1.08.97,1.46s1.01.56,1.72.56c.75,0,1.33-.2,1.75-.59.42-.39.73-.91.94-1.54l3.36,1.34c-.52,1.38-1.31,2.41-2.35,3.09-1.05.68-2.28,1.02-3.7,1.02Z" fill="#00efd2"/>
            <path d="M182.11,74.12v-3.7h4v3.7h-4ZM182.16,89.94v-13.8h3.84v13.8h-3.84Z" fill="#00efd2"/>
            <path d="M193.28,90.22c-1.01,0-1.91-.19-2.72-.56-.8-.37-1.44-.91-1.9-1.61-.47-.7-.7-1.51-.7-2.42,0-.8.17-1.49.5-2.07s.78-1.03,1.34-1.34c.45-.26.95-.45,1.51-.56.56-.11,1.15-.17,1.76-.17h4.23v2.83h-3.67c-.26,0-.5.02-.73.07-.22.05-.43.14-.62.27-.15.11-.27.25-.35.42s-.13.35-.13.56c0,.47.18.84.55,1.11.36.27.85.41,1.47.41.58,0,1.11-.12,1.58-.36.48-.24.86-.58,1.15-1.01.29-.43.43-.91.43-1.46l.9,2.1c-.3.97-.7,1.73-1.19,2.28-.5.55-1.04.94-1.62,1.18-.59.23-1.19.35-1.81.35ZM197.28,89.94l-.28-1.85v-6.89c0-.75-.25-1.29-.74-1.62-.5-.34-1.13-.5-1.92-.5-.73,0-1.49.14-2.28.42-.79.28-1.47.64-2.03,1.09l-1.79-2.66c1.04-.77,2.08-1.3,3.11-1.61s2.14-.46,3.33-.46c1.92,0,3.43.48,4.51,1.43,1.08.95,1.62,2.26,1.62,3.92v8.74h-3.53Z" fill="#00efd2"/>
            <path d="M65.4,117.94v-15.93h-5.88v-3.58h15.79v3.58h-5.85v15.93h-4.06Z" fill="#00efd2"/>
            <path d="M80.44,118.22c-1.23,0-2.29-.2-3.18-.59s-1.61-.92-2.16-1.6c-.55-.67-.95-1.43-1.2-2.28-.25-.85-.38-1.73-.38-2.65s.13-1.75.38-2.6c.25-.86.64-1.64,1.16-2.34.52-.7,1.21-1.26,2.07-1.68s1.89-.63,3.08-.63c1.06,0,2,.18,2.81.55.81.36,1.49.87,2.03,1.51.54.64.95,1.4,1.22,2.28.27.88.41,1.82.41,2.83,0,.17,0,.36-.01.59,0,.22-.03.48-.07.76h-9.24c.11.86.48,1.5,1.09,1.92.62.42,1.35.63,2.21.63.69,0,1.38-.12,2.07-.36.69-.24,1.3-.59,1.82-1.04l1.76,2.69c-.69.49-1.33.88-1.92,1.18-.59.3-1.19.51-1.82.64-.63.13-1.34.2-2.14.2ZM82.9,110.43c.04-.15.07-.3.1-.45.03-.15.04-.29.04-.42,0-.37-.07-.71-.21-1.02s-.33-.57-.57-.8-.53-.4-.87-.52c-.34-.12-.71-.18-1.12-.18-.65,0-1.19.13-1.61.38s-.74.56-.95.94c-.21.37-.35.76-.41,1.15h6.89l-1.29.92ZM78.84,102.42l3.14-4h4.14l-4.51,4h-2.77Z" fill="#00efd2"/>
            <path d="M94.83,118.22c-1.16,0-2.16-.2-3.01-.6-.85-.4-1.56-.94-2.13-1.62-.57-.68-.99-1.45-1.27-2.31-.28-.86-.42-1.75-.42-2.66s.14-1.8.42-2.66c.28-.86.7-1.62,1.27-2.3s1.28-1.21,2.13-1.61,1.85-.6,3.01-.6c1.42,0,2.65.34,3.7,1.01,1.05.67,1.83,1.71,2.35,3.11l-3.36,1.34c-.21-.63-.52-1.15-.94-1.54s-1-.59-1.75-.59-1.28.19-1.72.56-.76.85-.97,1.44c-.21.59-.31,1.2-.31,1.83s.1,1.25.31,1.85c.21.6.53,1.08.97,1.46s1.01.56,1.72.56c.75,0,1.33-.2,1.75-.59s.73-.91.94-1.54l3.36,1.34c-.52,1.38-1.31,2.41-2.35,3.09-1.05.68-2.28,1.02-3.7,1.02Z" fill="#00efd2"/>
            <path d="M102.61,117.94v-13.8h3.84v3.19l-.56.03c.24-.88.6-1.57,1.08-2.09.48-.51,1.02-.88,1.64-1.09.62-.21,1.23-.32,1.85-.32,1.59,0,2.82.44,3.71,1.33.89.89,1.33,2.1,1.33,3.65v9.1h-3.86v-7.67c0-1.06-.19-1.84-.57-2.34-.38-.49-.98-.74-1.81-.74-.62,0-1.13.15-1.55.45-.42.3-.73.76-.94,1.37-.21.62-.31,1.42-.31,2.41v6.52h-3.84Z" fill="#00efd2"/>
            <path d="M117.79,102.12v-3.7h4v3.7h-4ZM117.85,117.94v-13.8h3.84v13.8h-3.84Z" fill="#00efd2"/>
            <path d="M130.42,118.22c-1.16,0-2.16-.2-3.01-.6-.85-.4-1.56-.94-2.13-1.62-.57-.68-.99-1.45-1.27-2.31-.28-.86-.42-1.75-.42-2.66s.14-1.8.42-2.66c.28-.86.7-1.62,1.27-2.3s1.28-1.21,2.13-1.61,1.85-.6,3.01-.6c1.42,0,2.65.34,3.7,1.01,1.05.67,1.83,1.71,2.35,3.11l-3.36,1.34c-.21-.63-.52-1.15-.94-1.54s-1-.59-1.75-.59-1.28.19-1.72.56-.76.85-.97,1.44c-.21.59-.31,1.2-.31,1.83s.1,1.25.31,1.85c.21.6.53,1.08.97,1.46s1.01.56,1.72.56c.75,0,1.33-.2,1.75-.59s.73-.91.94-1.54l3.36,1.34c-.52,1.38-1.31,2.41-2.35,3.09-1.05.68-2.28,1.02-3.7,1.02Z" fill="#00efd2"/>
            <path d="M142.93,118.22c-1.01,0-1.91-.19-2.72-.56-.8-.37-1.44-.91-1.9-1.61-.47-.7-.7-1.51-.7-2.42,0-.8.17-1.49.5-2.07s.78-1.03,1.34-1.34c.45-.26.95-.45,1.51-.56.56-.11,1.15-.17,1.76-.17h4.23v2.83h-3.67c-.26,0-.5.02-.73.07-.22.05-.43.14-.62.27-.15.11-.27.25-.35.42s-.13.35-.13.56c0,.47.18.84.55,1.11.36.27.85.41,1.47.41.58,0,1.11-.12,1.58-.36.48-.24.86-.58,1.15-1.01.29-.43.43-.91.43-1.46l.9,2.1c-.3.97-.7,1.73-1.19,2.28-.5.55-1.04.94-1.62,1.18-.59.23-1.19.35-1.81.35ZM146.94,117.94l-.28-1.85v-6.89c0-.75-.25-1.29-.74-1.62s-1.13-.5-1.92-.5c-.73,0-1.49.14-2.28.42-.79.28-1.47.64-2.03,1.09l-1.79-2.66c1.05-.77,2.08-1.3,3.11-1.61,1.03-.31,2.14-.46,3.33-.46,1.92,0,3.43.48,4.51,1.43,1.08.95,1.62,2.26,1.62,3.92v8.74h-3.53Z" fill="#00efd2"/>
            <path d="M61.03,145.94v-19.52h6.66c2.22,0,3.9.47,5.03,1.41,1.13.94,1.69,2.37,1.69,4.27s-.57,3.38-1.72,4.38c-1.15,1-2.81,1.5-5,1.5h-2.69v7.95h-3.98ZM65.01,134.4h2.27c.99,0,1.75-.16,2.3-.48.54-.32.81-.9.81-1.76s-.26-1.39-.77-1.69c-.51-.31-1.29-.46-2.34-.46h-2.27v4.4Z" fill="#00efd2"/>
            <path d="M75.99,145.94v-13.8h3.86v3.75l-.53.03c.06-.78.28-1.48.69-2.1.4-.62.91-1.1,1.53-1.44.62-.35,1.25-.52,1.9-.52.47,0,.91.07,1.34.2.43.13.89.35,1.37.64l-1.85,3.47c-.21-.13-.47-.25-.8-.35-.33-.1-.66-.15-.99-.15s-.66.07-.98.2c-.32.13-.6.32-.84.57-.24.25-.44.58-.59.99-.09.26-.16.59-.21.99-.05.4-.07.99-.07,1.78v5.74h-3.84Z" fill="#00efd2"/>
            <path d="M93.07,146.22c-1.34,0-2.55-.31-3.61-.92-1.06-.62-1.9-1.47-2.51-2.56-.61-1.09-.91-2.33-.91-3.71s.3-2.64.91-3.72c.61-1.08,1.44-1.93,2.49-2.53s2.26-.91,3.63-.91,2.54.3,3.6.91c1.05.61,1.89,1.45,2.49,2.53.61,1.08.91,2.32.91,3.72s-.3,2.62-.91,3.71c-.61,1.09-1.44,1.95-2.49,2.56-1.05.62-2.25.92-3.6.92ZM93.07,142.86c.67,0,1.24-.15,1.71-.45.47-.3.82-.74,1.06-1.32.24-.58.36-1.27.36-2.07s-.12-1.51-.36-2.07c-.24-.56-.6-.99-1.06-1.29-.47-.3-1.04-.45-1.71-.45s-1.25.15-1.72.45c-.48.3-.84.73-1.09,1.29-.25.56-.38,1.25-.38,2.07s.13,1.49.38,2.07c.25.58.62,1.02,1.09,1.32.48.3,1.05.45,1.72.45Z" fill="#00efd2"/>
            <path d="M102.95,145.94v-10.81h-2.38v-3h2.41v-1.34c0-1.23.21-2.19.62-2.87.41-.68.96-1.15,1.64-1.4.68-.25,1.41-.38,2.2-.38.6,0,1.12.05,1.55.15.44.1.85.25,1.25.43l-1.23,2.94c-.17-.09-.35-.17-.55-.24-.2-.07-.4-.1-.6-.1-.39,0-.66.14-.81.41-.15.27-.22.63-.22,1.08v1.32h2.83v3h-2.83v10.81h-3.86Z" fill="#00efd2"/>
            <path d="M116.03,146.22c-1.18,0-2.14-.23-2.9-.69-.76-.46-1.31-1.1-1.67-1.93s-.53-1.8-.53-2.9v-8.57h3.84v7.73c0,.54.06,1.04.18,1.5.12.46.35.83.7,1.11.35.28.86.42,1.55.42.84,0,1.45-.25,1.83-.74.38-.49.63-1.18.74-2.04.11-.87.17-1.85.17-2.95v-5.01h3.86v13.8h-3.86v-3l.45.36c-.43,1.08-1.03,1.84-1.81,2.27s-1.63.64-2.56.64Z" fill="#00efd2"/>
            <path d="M126.36,145.94v-13.8h3.84v3.19l-.56.03c.24-.88.6-1.57,1.08-2.09.48-.51,1.02-.88,1.64-1.09.62-.21,1.23-.32,1.85-.32,1.59,0,2.82.44,3.71,1.33.89.89,1.33,2.1,1.33,3.65v9.1h-3.86v-7.67c0-1.06-.19-1.84-.57-2.34-.38-.49-.98-.74-1.81-.74-.62,0-1.13.15-1.55.45-.42.3-.73.76-.94,1.37-.21.62-.31,1.42-.31,2.41v6.52h-3.84Z" fill="#00efd2"/>
            <path d="M146.71,146.22c-1.19,0-2.23-.31-3.09-.94-.87-.62-1.53-1.48-1.97-2.56-.45-1.08-.67-2.31-.67-3.7,0-1.53.26-2.83.77-3.89.51-1.06,1.21-1.88,2.09-2.44s1.84-.84,2.88-.84c.71,0,1.38.15,2,.43.62.29,1.17.75,1.62,1.37.46.63.76,1.45.91,2.48l-.73-.39v-9.32h3.84v19.52h-3.84v-3.56l.84-.62c-.22,1.19-.59,2.11-1.09,2.76s-1.06,1.09-1.68,1.33c-.62.24-1.24.36-1.88.36ZM147.86,142.69c.62,0,1.15-.15,1.6-.45.45-.3.79-.72,1.04-1.27.24-.55.36-1.2.36-1.95s-.12-1.39-.36-1.93c-.24-.54-.59-.97-1.04-1.27-.45-.31-.98-.46-1.6-.46s-1.15.15-1.61.45c-.46.3-.81.72-1.06,1.26-.25.54-.38,1.19-.38,1.96s.13,1.42.38,1.97c.25.55.61.97,1.06,1.26.46.29.99.43,1.61.43Z" fill="#00efd2"/>
            <path d="M161.61,146.22c-1.01,0-1.91-.19-2.72-.56-.8-.37-1.44-.91-1.9-1.61-.47-.7-.7-1.51-.7-2.42,0-.8.17-1.49.5-2.07.34-.58.78-1.03,1.34-1.34.45-.26.95-.45,1.51-.56.56-.11,1.15-.17,1.76-.17h4.23v2.83h-3.67c-.26,0-.5.02-.73.07-.22.05-.43.14-.62.27-.15.11-.27.25-.35.42s-.13.35-.13.56c0,.47.18.84.55,1.11.36.27.85.41,1.47.41.58,0,1.11-.12,1.58-.36.48-.24.86-.58,1.15-1.01.29-.43.43-.91.43-1.46l.9,2.1c-.3.97-.7,1.73-1.19,2.28-.5.55-1.04.94-1.62,1.18-.59.23-1.19.35-1.8.35ZM165.61,145.94l-.28-1.85v-6.89c0-.75-.25-1.29-.74-1.62s-1.13-.5-1.92-.5c-.73,0-1.49.14-2.28.42-.79.28-1.47.64-2.03,1.09l-1.79-2.66c1.04-.77,2.08-1.3,3.11-1.61,1.03-.31,2.14-.46,3.33-.46,1.92,0,3.43.48,4.51,1.43,1.08.95,1.62,2.26,1.62,3.92v8.74h-3.53Z" fill="#00efd2"/>
          </g>
        </g>
      </g>
      <g>
        <path d="M605.3,175c-48.25,0-87.5-39.25-87.5-87.5S557.05,0,605.3,0c33.39,0,63.4,18.57,78.33,48.46.49.99.09,2.19-.9,2.68-.99.49-2.19.09-2.68-.9-14.25-28.53-42.89-46.25-74.75-46.25-46.04,0-83.5,37.46-83.5,83.5s37.46,83.5,83.5,83.5c1.1,0,2,.9,2,2s-.9,2-2,2Z" fill="#00efd2"/>
        <g id="_2" data-name=" 2" isolation="isolate">
          <g isolation="isolate">
            <path d="M732.46,87.58v-12.12h-12.12v-4.62h12.12v-12.12h4.68v12.12h12.12v4.62h-12.12v12.12h-4.68Z" fill="#00efd2"/>
          </g>
        </g>
        <g id="Deep_Technical_Expertise-3" data-name="Deep Technical Expertise">
          <g>
            <path d="M577.29,119.22l7.98-19.52h2.97l7.98,19.52h-4.37l-5.07-13.58-5.12,13.58h-4.37ZM582.78,115.66l1.26-3.58h5.46l1.29,3.58h-8.01Z" fill="#00efd2"/>
            <path d="M603.3,119.5c-1.16,0-2.16-.2-3.01-.6-.85-.4-1.56-.94-2.13-1.62-.57-.68-.99-1.45-1.27-2.31-.28-.86-.42-1.75-.42-2.66s.14-1.8.42-2.66c.28-.86.71-1.62,1.27-2.3s1.28-1.21,2.13-1.61,1.85-.6,3.01-.6c1.42,0,2.65.34,3.7,1.01,1.04.67,1.83,1.71,2.35,3.11l-3.36,1.34c-.21-.63-.52-1.15-.94-1.54s-1-.59-1.75-.59-1.28.19-1.72.56-.76.85-.97,1.44c-.21.59-.31,1.2-.31,1.83s.1,1.25.31,1.85c.21.6.53,1.08.97,1.46s1.01.56,1.72.56c.75,0,1.33-.2,1.75-.59s.73-.91.94-1.54l3.36,1.34c-.52,1.38-1.31,2.41-2.35,3.09-1.05.68-2.28,1.02-3.7,1.02Z" fill="#00efd2"/>
            <path d="M617.36,119.5c-1.23,0-2.29-.2-3.18-.59s-1.61-.92-2.16-1.6c-.55-.67-.95-1.43-1.2-2.28-.25-.85-.38-1.73-.38-2.65s.13-1.75.38-2.6c.25-.86.64-1.64,1.16-2.34.52-.7,1.21-1.26,2.07-1.68s1.88-.63,3.08-.63c1.06,0,2,.18,2.81.55.81.36,1.49.87,2.03,1.51s.95,1.4,1.22,2.28c.27.88.41,1.82.41,2.83,0,.17,0,.36-.01.59,0,.22-.03.48-.07.76h-9.24c.11.86.48,1.5,1.09,1.92.62.42,1.35.63,2.21.63.69,0,1.38-.12,2.07-.36.69-.24,1.3-.59,1.82-1.04l1.76,2.69c-.69.49-1.33.88-1.92,1.18-.59.3-1.19.51-1.82.64-.63.13-1.34.2-2.14.2ZM619.82,111.71c.04-.15.07-.3.1-.45.03-.15.04-.29.04-.42,0-.37-.07-.71-.21-1.02-.14-.31-.33-.57-.57-.8-.24-.22-.53-.4-.87-.52-.34-.12-.71-.18-1.12-.18-.65,0-1.19.13-1.61.38s-.74.56-.95.94c-.21.37-.35.76-.41,1.15h6.89l-1.29.92Z" fill="#00efd2"/>
            <path d="M628.89,119.5c-.97,0-1.78-.29-2.44-.88s-.98-1.53-.98-2.81v-16.1h3.84v15.34c0,.34.08.57.25.71s.38.21.64.21c.17,0,.33-.02.48-.06s.31-.07.48-.11v3.28c-.41.15-.81.26-1.2.32-.39.06-.75.1-1.06.1Z" fill="#00efd2"/>
            <path d="M639.03,119.5c-1.23,0-2.29-.2-3.18-.59s-1.61-.92-2.16-1.6c-.55-.67-.95-1.43-1.2-2.28-.25-.85-.38-1.73-.38-2.65s.13-1.75.38-2.6c.25-.86.64-1.64,1.16-2.34.52-.7,1.21-1.26,2.07-1.68s1.88-.63,3.08-.63c1.06,0,2,.18,2.81.55.81.36,1.49.87,2.03,1.51s.95,1.4,1.22,2.28c.27.88.41,1.82.41,2.83,0,.17,0,.36-.01.59,0,.22-.03.48-.07.76h-9.24c.11.86.48,1.5,1.09,1.92.62.42,1.35.63,2.21.63.69,0,1.38-.12,2.07-.36.69-.24,1.3-.59,1.82-1.04l1.76,2.69c-.69.49-1.33.88-1.92,1.18-.59.3-1.19.51-1.82.64-.63.13-1.34.2-2.14.2ZM641.49,111.71c.04-.15.07-.3.1-.45.03-.15.04-.29.04-.42,0-.37-.07-.71-.21-1.02-.14-.31-.33-.57-.57-.8-.24-.22-.53-.4-.87-.52-.34-.12-.71-.18-1.12-.18-.65,0-1.19.13-1.61.38s-.74.56-.95.94c-.21.37-.35.76-.41,1.15h6.89l-1.29.92Z" fill="#00efd2"/>
            <path d="M647.23,119.22v-13.8h3.86v3.75l-.53.03c.06-.78.28-1.48.69-2.1s.91-1.1,1.53-1.44c.62-.35,1.25-.52,1.9-.52.47,0,.92.07,1.34.2.43.13.89.35,1.37.64l-1.85,3.47c-.21-.13-.47-.25-.8-.35-.33-.1-.66-.15-.99-.15s-.66.07-.98.2c-.32.13-.6.32-.84.57-.24.25-.44.58-.59.99-.09.26-.16.59-.21.99-.05.4-.07.99-.07,1.78v5.74h-3.84Z" fill="#00efd2"/>
            <path d="M663.14,119.5c-1.01,0-1.91-.19-2.72-.56-.8-.37-1.44-.91-1.9-1.61-.47-.7-.7-1.51-.7-2.42,0-.8.17-1.49.5-2.07s.78-1.03,1.34-1.34c.45-.26.95-.45,1.51-.56.56-.11,1.15-.17,1.76-.17h4.23v2.83h-3.67c-.26,0-.5.02-.73.07-.22.05-.43.14-.62.27-.15.11-.27.25-.35.42s-.13.35-.13.56c0,.47.18.84.55,1.11.36.27.85.41,1.47.41.58,0,1.11-.12,1.58-.36.48-.24.86-.58,1.15-1.01.29-.43.43-.91.43-1.46l.9,2.1c-.3.97-.7,1.73-1.19,2.28-.5.55-1.04.94-1.62,1.18-.59.23-1.19.35-1.81.35ZM667.14,119.22l-.28-1.85v-6.89c0-.75-.25-1.29-.74-1.62-.49-.34-1.13-.5-1.92-.5-.73,0-1.49.14-2.28.42-.79.28-1.47.64-2.03,1.09l-1.79-2.66c1.04-.77,2.08-1.3,3.11-1.61s2.14-.46,3.33-.46c1.92,0,3.43.48,4.51,1.43,1.08.95,1.62,2.26,1.62,3.92v8.74h-3.53Z" fill="#00efd2"/>
            <path d="M678.14,119.5c-1.19,0-2.22-.31-3.09-.94-.87-.62-1.53-1.48-1.97-2.56-.45-1.08-.67-2.31-.67-3.7,0-1.53.26-2.83.77-3.89.51-1.06,1.21-1.88,2.09-2.44.88-.56,1.84-.84,2.88-.84.71,0,1.38.15,2,.43.63.29,1.17.75,1.62,1.37s.76,1.45.91,2.48l-.73-.39v-9.32h3.84v19.52h-3.84v-3.56l.84-.62c-.22,1.19-.59,2.11-1.09,2.76s-1.06,1.09-1.68,1.33-1.24.36-1.88.36ZM679.29,115.97c.62,0,1.15-.15,1.6-.45.45-.3.79-.72,1.04-1.27.24-.55.36-1.2.36-1.95s-.12-1.39-.36-1.93c-.24-.54-.59-.97-1.04-1.27-.45-.31-.98-.46-1.6-.46s-1.15.15-1.61.45c-.46.3-.81.72-1.06,1.26-.25.54-.38,1.19-.38,1.96s.12,1.42.38,1.97c.25.55.61.97,1.06,1.26.46.29.99.43,1.61.43Z" fill="#00efd2"/>
            <path d="M694.69,119.5c-1.34,0-2.55-.31-3.61-.92-1.06-.62-1.9-1.47-2.51-2.56-.61-1.09-.91-2.33-.91-3.71s.3-2.64.91-3.72c.61-1.08,1.44-1.93,2.49-2.53s2.26-.91,3.63-.91,2.54.3,3.6.91c1.05.61,1.88,1.45,2.49,2.53.61,1.08.91,2.32.91,3.72s-.3,2.62-.91,3.71c-.61,1.09-1.44,1.95-2.49,2.56-1.06.62-2.25.92-3.6.92ZM694.69,116.14c.67,0,1.24-.15,1.71-.45.47-.3.82-.74,1.06-1.32.24-.58.36-1.27.36-2.07s-.12-1.51-.36-2.07c-.24-.56-.6-.99-1.06-1.29-.47-.3-1.04-.45-1.71-.45s-1.25.15-1.72.45c-.48.3-.84.73-1.09,1.29-.25.56-.38,1.25-.38,2.07s.13,1.49.38,2.07c.25.58.62,1.02,1.09,1.32.48.3,1.05.45,1.72.45Z" fill="#00efd2"/>
            <path d="M703.6,119.22v-13.8h3.86v3.75l-.53.03c.06-.78.28-1.48.69-2.1s.91-1.1,1.53-1.44c.62-.35,1.25-.52,1.9-.52.47,0,.91.07,1.34.2.43.13.89.35,1.37.64l-1.85,3.47c-.21-.13-.47-.25-.8-.35-.33-.1-.66-.15-.99-.15s-.66.07-.98.2c-.32.13-.6.32-.84.57-.24.25-.44.58-.59.99-.09.26-.16.59-.21.99-.05.4-.07.99-.07,1.78v5.74h-3.84Z" fill="#00efd2"/>
            <path d="M720.56,119.5c-1.23,0-2.29-.2-3.18-.59s-1.61-.92-2.16-1.6c-.55-.67-.95-1.43-1.2-2.28-.25-.85-.38-1.73-.38-2.65s.13-1.75.38-2.6c.25-.86.64-1.64,1.16-2.34.52-.7,1.21-1.26,2.07-1.68s1.89-.63,3.08-.63c1.06,0,2,.18,2.81.55.81.36,1.49.87,2.03,1.51.54.64.95,1.4,1.22,2.28.27.88.41,1.82.41,2.83,0,.17,0,.36-.01.59,0,.22-.03.48-.07.76h-9.24c.11.86.48,1.5,1.09,1.92.62.42,1.35.63,2.21.63.69,0,1.38-.12,2.07-.36.69-.24,1.3-.59,1.82-1.04l1.76,2.69c-.69.49-1.33.88-1.92,1.18-.59.3-1.2.51-1.82.64-.63.13-1.34.2-2.14.2ZM723.03,111.71c.04-.15.07-.3.1-.45.03-.15.04-.29.04-.42,0-.37-.07-.71-.21-1.02s-.33-.57-.57-.8-.53-.4-.87-.52c-.34-.12-.71-.18-1.12-.18-.65,0-1.19.13-1.61.38s-.74.56-.95.94c-.21.37-.35.76-.41,1.15h6.89l-1.29.92Z" fill="#00efd2"/>
            <path d="M733.61,119.5c-1.04,0-1.96-.15-2.74-.45-.78-.3-1.44-.67-1.96-1.11-.52-.44-.95-.84-1.29-1.22l2.63-2.3c.32.47.75.92,1.3,1.34.55.43,1.25.64,2.09.64.62,0,1.1-.12,1.44-.36.34-.24.52-.52.52-.84,0-.3-.11-.54-.34-.71s-.52-.33-.9-.46c-.37-.13-.79-.26-1.26-.39-.52-.13-1.06-.29-1.62-.49-.56-.2-1.08-.45-1.57-.77-.49-.32-.88-.72-1.18-1.22s-.45-1.12-.45-1.86c0-1.25.49-2.26,1.47-3.02.98-.77,2.26-1.15,3.85-1.15,1.12,0,2.14.21,3.05.64.92.43,1.64,1.05,2.18,1.88l-2.38,1.88c-.34-.49-.77-.86-1.29-1.13s-1.07-.41-1.65-.41c-.49,0-.88.09-1.19.27-.31.18-.46.41-.46.69,0,.21.07.38.22.52.15.14.39.27.73.38.34.11.79.24,1.37.39.54.13,1.11.29,1.71.48.6.19,1.16.44,1.69.77.53.33.96.76,1.29,1.29.33.53.49,1.2.49,2,0,.93-.24,1.76-.71,2.48-.48.72-1.15,1.27-2.02,1.67s-1.88.59-3.04.59Z" fill="#00efd2"/>
            <path d="M583.28,147.22v-15.93h-5.88v-3.58h15.79v3.58h-5.85v15.93h-4.06Z" fill="#00efd2"/>
            <path d="M598.32,147.5c-1.23,0-2.29-.2-3.18-.59s-1.61-.92-2.16-1.6c-.55-.67-.95-1.43-1.2-2.28-.25-.85-.38-1.73-.38-2.65s.13-1.75.38-2.6c.25-.86.64-1.64,1.16-2.34.52-.7,1.21-1.26,2.07-1.68s1.89-.63,3.08-.63c1.06,0,2,.18,2.81.55.81.36,1.49.87,2.03,1.51.54.64.95,1.4,1.22,2.28.27.88.41,1.82.41,2.83,0,.17,0,.36-.01.59,0,.22-.03.48-.07.76h-9.24c.11.86.48,1.5,1.09,1.92.62.42,1.35.63,2.21.63.69,0,1.38-.12,2.07-.36.69-.24,1.3-.59,1.82-1.04l1.76,2.69c-.69.49-1.33.88-1.92,1.18-.59.3-1.2.51-1.82.64s-1.34.2-2.14.2ZM600.78,139.71c.04-.15.07-.3.1-.45.03-.15.04-.29.04-.42,0-.37-.07-.71-.21-1.02-.14-.31-.33-.57-.57-.8-.24-.22-.53-.4-.87-.52-.34-.12-.71-.18-1.12-.18-.65,0-1.19.13-1.61.38s-.74.56-.95.94c-.21.37-.35.76-.41,1.15h6.89l-1.29.92Z" fill="#00efd2"/>
            <path d="M612.71,147.5c-1.16,0-2.16-.2-3.01-.6-.85-.4-1.56-.94-2.13-1.62-.57-.68-.99-1.45-1.27-2.31-.28-.86-.42-1.75-.42-2.66s.14-1.8.42-2.66c.28-.86.71-1.62,1.27-2.3s1.28-1.21,2.13-1.61,1.85-.6,3.01-.6c1.42,0,2.65.34,3.7,1.01,1.04.67,1.83,1.71,2.35,3.11l-3.36,1.34c-.21-.63-.52-1.15-.94-1.54s-1-.59-1.75-.59-1.28.19-1.72.56-.76.85-.97,1.44c-.21.59-.31,1.2-.31,1.83s.1,1.25.31,1.85c.21.6.53,1.08.97,1.46s1.01.56,1.72.56c.75,0,1.33-.2,1.75-.59s.73-.91.94-1.54l3.36,1.34c-.52,1.38-1.31,2.41-2.35,3.09-1.05.68-2.28,1.02-3.7,1.02Z" fill="#00efd2"/>
            <path d="M620.49,147.22v-13.8h3.84v3.19l-.56.03c.24-.88.6-1.57,1.08-2.09.48-.51,1.02-.88,1.64-1.09.62-.21,1.23-.32,1.85-.32,1.59,0,2.82.44,3.71,1.33.89.89,1.33,2.1,1.33,3.65v9.1h-3.86v-7.67c0-1.06-.19-1.84-.57-2.34-.38-.49-.99-.74-1.81-.74-.62,0-1.13.15-1.55.45-.42.3-.73.76-.94,1.37-.21.62-.31,1.42-.31,2.41v6.52h-3.84Z" fill="#00efd2"/>
            <path d="M642.14,147.5c-1.34,0-2.55-.31-3.61-.92-1.06-.62-1.9-1.47-2.51-2.56-.61-1.09-.91-2.33-.91-3.71s.3-2.64.91-3.72c.61-1.08,1.44-1.93,2.49-2.53s2.26-.91,3.63-.91,2.54.3,3.6.91,1.89,1.45,2.49,2.53c.61,1.08.91,2.32.91,3.72s-.3,2.62-.91,3.71c-.61,1.09-1.44,1.95-2.49,2.56-1.05.62-2.25.92-3.6.92ZM642.14,144.14c.67,0,1.24-.15,1.71-.45.47-.3.82-.74,1.06-1.32.24-.58.36-1.27.36-2.07s-.12-1.51-.36-2.07c-.24-.56-.6-.99-1.06-1.29-.47-.3-1.04-.45-1.71-.45s-1.25.15-1.72.45c-.48.3-.84.73-1.09,1.29-.25.56-.38,1.25-.38,2.07s.13,1.49.38,2.07c.25.58.62,1.02,1.09,1.32.48.3,1.05.45,1.72.45Z" fill="#00efd2"/>
            <path d="M654.37,147.5c-.97,0-1.78-.29-2.44-.88-.65-.59-.98-1.53-.98-2.81v-16.1h3.84v15.34c0,.34.08.57.25.71s.38.21.64.21c.17,0,.33-.02.48-.06.15-.04.31-.07.48-.11v3.28c-.41.15-.81.26-1.2.32-.39.06-.75.1-1.06.1Z" fill="#00efd2"/>
            <path d="M664.62,147.5c-1.34,0-2.55-.31-3.61-.92-1.06-.62-1.9-1.47-2.51-2.56-.61-1.09-.91-2.33-.91-3.71s.3-2.64.91-3.72c.61-1.08,1.44-1.93,2.49-2.53s2.26-.91,3.63-.91,2.54.3,3.6.91,1.89,1.45,2.49,2.53c.61,1.08.91,2.32.91,3.72s-.3,2.62-.91,3.71c-.61,1.09-1.44,1.95-2.49,2.56-1.05.62-2.25.92-3.6.92ZM664.62,144.14c.67,0,1.24-.15,1.71-.45.47-.3.82-.74,1.06-1.32.24-.58.36-1.27.36-2.07s-.12-1.51-.36-2.07c-.24-.56-.6-.99-1.06-1.29-.47-.3-1.04-.45-1.71-.45s-1.25.15-1.72.45c-.48.3-.84.73-1.09,1.29-.25.56-.38,1.25-.38,2.07s.13,1.49.38,2.07c.25.58.62,1.02,1.09,1.32.48.3,1.05.45,1.72.45ZM663.22,131.71l3.14-4h4.14l-4.51,4h-2.77Z" fill="#00efd2"/>
            <path d="M679.43,153.24c-2.09,0-3.73-.37-4.93-1.11-1.19-.74-1.79-1.74-1.79-3.01,0-.13,0-.28.03-.43.02-.16.05-.31.08-.46l4.03-2.38.87,1.09-1.68,2.07s-.03.07-.03.11v.11c0,.43.3.77.91,1.02.61.25,1.44.38,2.51.38.86,0,1.5-.11,1.93-.32.43-.21.64-.5.64-.85,0-.21-.06-.37-.17-.49-.11-.12-.3-.22-.56-.31s-.62-.16-1.08-.24c-.46-.07-1.02-.15-1.69-.22-.84-.09-1.68-.27-2.51-.52-.83-.25-1.52-.63-2.07-1.13s-.83-1.18-.83-2.02c0-.77.26-1.46.77-2.09s1.2-1.14,2.06-1.55l1.71,1.48c-.45.06-.8.21-1.05.45-.25.24-.38.52-.38.84,0,.28.12.5.35.67.23.17.57.29,1.01.38.44.08.96.16,1.55.24.99.11,1.89.24,2.72.39.82.15,1.53.36,2.13.63.6.27,1.06.64,1.39,1.12.33.48.49,1.1.49,1.86,0,1.38-.56,2.44-1.67,3.18-1.11.74-2.69,1.11-4.75,1.11ZM679.15,143.52c-1.18,0-2.21-.22-3.11-.67-.9-.45-1.59-1.06-2.09-1.83-.5-.77-.74-1.66-.74-2.65,0-1.06.27-1.99.8-2.77.53-.78,1.24-1.39,2.13-1.82.89-.43,1.84-.64,2.87-.64s2.01.21,2.88.64c.88.43,1.59,1.05,2.14,1.85s.83,1.75.83,2.86c0,1.01-.24,1.89-.71,2.65-.47.76-1.14,1.34-2,1.76-.86.42-1.86.63-3,.63ZM679.07,140.47c.69,0,1.19-.21,1.5-.63.31-.42.46-.92.46-1.5s-.17-1.09-.52-1.47c-.35-.38-.83-.57-1.44-.57s-1.1.19-1.46.57c-.36.38-.53.87-.53,1.47s.16,1.08.48,1.5.82.63,1.51.63ZM683.91,136.44l-2.77-1.76,3.28-2.63,1.99,2.38-2.49,2.02Z" fill="#00efd2"/>
            <path d="M687.44,131.4v-3.7h4v3.7h-4ZM687.5,147.22v-13.8h3.84v13.8h-3.84Z" fill="#00efd2"/>
            <path d="M700.07,147.5c-1.16,0-2.16-.2-3.01-.6-.85-.4-1.56-.94-2.13-1.62-.57-.68-.99-1.45-1.27-2.31-.28-.86-.42-1.75-.42-2.66s.14-1.8.42-2.66c.28-.86.7-1.62,1.27-2.3s1.28-1.21,2.13-1.61,1.85-.6,3.01-.6c1.42,0,2.65.34,3.7,1.01,1.04.67,1.83,1.71,2.35,3.11l-3.36,1.34c-.21-.63-.52-1.15-.94-1.54-.42-.39-1-.59-1.75-.59s-1.28.19-1.72.56-.76.85-.97,1.44c-.21.59-.31,1.2-.31,1.83s.1,1.25.31,1.85c.21.6.53,1.08.97,1.46s1.01.56,1.72.56c.75,0,1.33-.2,1.75-.59.42-.39.73-.91.94-1.54l3.36,1.34c-.52,1.38-1.31,2.41-2.35,3.09-1.05.68-2.28,1.02-3.7,1.02Z" fill="#00efd2"/>
            <path d="M714.24,147.5c-1.34,0-2.55-.31-3.61-.92-1.06-.62-1.9-1.47-2.51-2.56-.61-1.09-.91-2.33-.91-3.71s.3-2.64.91-3.72c.61-1.08,1.44-1.93,2.49-2.53s2.26-.91,3.63-.91,2.54.3,3.6.91c1.05.61,1.88,1.45,2.49,2.53.61,1.08.91,2.32.91,3.72s-.3,2.62-.91,3.71c-.61,1.09-1.44,1.95-2.49,2.56-1.06.62-2.25.92-3.6.92ZM714.24,144.14c.67,0,1.24-.15,1.71-.45.47-.3.82-.74,1.06-1.32.24-.58.36-1.27.36-2.07s-.12-1.51-.36-2.07c-.24-.56-.6-.99-1.06-1.29-.47-.3-1.04-.45-1.71-.45s-1.25.15-1.72.45c-.48.3-.84.73-1.09,1.29-.25.56-.38,1.25-.38,2.07s.13,1.49.38,2.07c.25.58.62,1.02,1.09,1.32.48.3,1.05.45,1.72.45Z" fill="#00efd2"/>
            <path d="M727.98,147.5c-1.04,0-1.96-.15-2.74-.45-.78-.3-1.44-.67-1.96-1.11-.52-.44-.95-.84-1.29-1.22l2.63-2.3c.32.47.75.92,1.3,1.34.55.43,1.25.64,2.09.64.62,0,1.1-.12,1.44-.36.34-.24.52-.52.52-.84,0-.3-.11-.54-.34-.71s-.52-.33-.9-.46c-.37-.13-.79-.26-1.26-.39-.52-.13-1.06-.29-1.62-.49-.56-.2-1.08-.45-1.57-.77-.49-.32-.88-.72-1.18-1.22s-.45-1.12-.45-1.86c0-1.25.49-2.26,1.47-3.02.98-.77,2.26-1.15,3.85-1.15,1.12,0,2.14.21,3.05.64.92.43,1.64,1.05,2.18,1.88l-2.38,1.88c-.34-.49-.77-.86-1.29-1.13s-1.07-.41-1.65-.41c-.49,0-.88.09-1.19.27-.31.18-.46.41-.46.69,0,.21.07.38.22.52.15.14.39.27.73.38.34.11.79.24,1.37.39.54.13,1.11.29,1.71.48.6.19,1.16.44,1.69.77.53.33.96.76,1.29,1.29.33.53.49,1.2.49,2,0,.93-.24,1.76-.71,2.48-.48.72-1.15,1.27-2.02,1.67s-1.88.59-3.04.59Z" fill="#00efd2"/>
          </g>
        </g>
      </g>
      <g>
        <g id="Deep_Technical_Expertise-4" data-name="Deep Technical Expertise">
          <g>
            <path d="M319.68,119.22v-19.52h13.05v3.58h-9.04v4.12h8.51v3.58h-8.51v4.65h9.04v3.58h-13.05Z" fill="#00efd2"/>
            <path d="M334.94,119.22v-13.8h3.84v3.19l-.56.03c.24-.88.6-1.57,1.08-2.09.48-.51,1.02-.88,1.64-1.09.62-.21,1.23-.32,1.85-.32,1.59,0,2.82.44,3.71,1.33.89.89,1.33,2.1,1.33,3.65v9.1h-3.86v-7.67c0-1.06-.19-1.84-.57-2.34-.38-.49-.99-.74-1.81-.74-.62,0-1.13.15-1.55.45-.42.3-.73.76-.94,1.37-.21.62-.31,1.42-.31,2.41v6.52h-3.84Z" fill="#00efd2"/>
            <path d="M348.85,108.41v-3h9.24v3h-9.24ZM355.66,119.5c-.77,0-1.48-.14-2.16-.43-.67-.29-1.21-.76-1.62-1.41-.41-.65-.62-1.54-.62-2.66v-12.63l3.89-2.07v13.61c0,.82.11,1.44.32,1.85.21.41.63.62,1.25.62.19,0,.4-.02.63-.06.23-.04.48-.09.74-.17v2.94c-.39.15-.79.26-1.19.32-.4.06-.82.1-1.25.1Z" fill="#00efd2"/>
            <path d="M359.97,119.22v-13.8h3.86v3.75l-.53.03c.06-.78.28-1.48.69-2.1s.91-1.1,1.53-1.44c.62-.35,1.25-.52,1.9-.52.47,0,.92.07,1.34.2.43.13.89.35,1.37.64l-1.85,3.47c-.21-.13-.47-.25-.8-.35-.33-.1-.66-.15-.99-.15s-.66.07-.98.2c-.32.13-.6.32-.84.57-.24.25-.44.58-.59.99-.09.26-.16.59-.21.99-.05.4-.07.99-.07,1.78v5.74h-3.84Z" fill="#00efd2"/>
            <path d="M376.94,119.5c-1.23,0-2.29-.2-3.18-.59s-1.61-.92-2.16-1.6c-.55-.67-.95-1.43-1.2-2.28-.25-.85-.38-1.73-.38-2.65s.13-1.75.38-2.6c.25-.86.64-1.64,1.16-2.34.52-.7,1.21-1.26,2.07-1.68s1.89-.63,3.08-.63c1.06,0,2,.18,2.81.55.81.36,1.49.87,2.03,1.51.54.64.95,1.4,1.22,2.28.27.88.41,1.82.41,2.83,0,.17,0,.36-.01.59,0,.22-.03.48-.07.76h-9.24c.11.86.48,1.5,1.09,1.92.62.42,1.35.63,2.21.63.69,0,1.38-.12,2.07-.36.69-.24,1.3-.59,1.82-1.04l1.76,2.69c-.69.49-1.33.88-1.92,1.18-.59.3-1.2.51-1.82.64s-1.34.2-2.14.2ZM379.4,111.71c.04-.15.07-.3.1-.45.03-.15.04-.29.04-.42,0-.37-.07-.71-.21-1.02-.14-.31-.33-.57-.57-.8-.24-.22-.53-.4-.87-.52-.34-.12-.71-.18-1.12-.18-.65,0-1.19.13-1.61.38s-.74.56-.95.94c-.21.37-.35.76-.41,1.15h6.89l-1.29.92Z" fill="#00efd2"/>
            <path d="M391.05,125.24c-2.09,0-3.73-.37-4.93-1.11-1.2-.74-1.79-1.74-1.79-3.01,0-.13,0-.28.03-.43.02-.16.05-.31.08-.46l4.03-2.38.87,1.09-1.68,2.07s-.03.07-.03.11v.11c0,.43.3.77.91,1.02.61.25,1.44.38,2.51.38.86,0,1.5-.11,1.93-.32.43-.21.64-.5.64-.85,0-.21-.06-.37-.17-.49-.11-.12-.3-.22-.56-.31s-.62-.16-1.08-.24c-.46-.07-1.02-.15-1.69-.22-.84-.09-1.68-.27-2.51-.52-.83-.25-1.52-.63-2.07-1.13s-.83-1.18-.83-2.02c0-.77.26-1.46.77-2.09.51-.63,1.2-1.14,2.06-1.55l1.71,1.48c-.45.06-.8.21-1.05.45-.25.24-.38.52-.38.84,0,.28.12.5.35.67s.57.29,1.01.38.96.16,1.55.24c.99.11,1.89.24,2.72.39.82.15,1.53.36,2.13.63.6.27,1.06.64,1.39,1.12.33.48.49,1.1.49,1.86,0,1.38-.56,2.44-1.67,3.18-1.11.74-2.69,1.11-4.75,1.11ZM390.77,115.52c-1.18,0-2.21-.22-3.11-.67-.9-.45-1.59-1.06-2.09-1.83-.5-.77-.74-1.66-.74-2.65,0-1.06.27-1.99.8-2.77.53-.78,1.24-1.39,2.13-1.82.89-.43,1.84-.64,2.87-.64s2.01.21,2.88.64c.88.43,1.59,1.05,2.14,1.85.55.8.83,1.75.83,2.86,0,1.01-.24,1.89-.71,2.65-.48.76-1.14,1.34-2,1.76-.86.42-1.86.63-3,.63ZM390.69,112.47c.69,0,1.19-.21,1.5-.63.31-.42.46-.92.46-1.5s-.17-1.09-.52-1.47c-.35-.38-.83-.57-1.44-.57s-1.1.19-1.46.57c-.35.38-.53.87-.53,1.47s.16,1.08.48,1.5.82.63,1.51.63ZM395.53,108.44l-2.77-1.76,3.28-2.63,1.99,2.38-2.49,2.02Z" fill="#00efd2"/>
            <path d="M403.82,119.5c-1.01,0-1.91-.19-2.72-.56-.8-.37-1.44-.91-1.9-1.61-.47-.7-.7-1.51-.7-2.42,0-.8.17-1.49.5-2.07s.78-1.03,1.34-1.34c.45-.26.95-.45,1.51-.56.56-.11,1.15-.17,1.76-.17h4.23v2.83h-3.67c-.26,0-.5.02-.73.07-.22.05-.43.14-.62.27-.15.11-.27.25-.35.42s-.13.35-.13.56c0,.47.18.84.55,1.11.36.27.85.41,1.47.41.58,0,1.11-.12,1.58-.36.48-.24.86-.58,1.15-1.01.29-.43.43-.91.43-1.46l.9,2.1c-.3.97-.7,1.73-1.19,2.28-.5.55-1.04.94-1.62,1.18-.59.23-1.19.35-1.81.35ZM407.82,119.22l-.28-1.85v-6.89c0-.75-.25-1.29-.74-1.62-.49-.34-1.13-.5-1.92-.5-.73,0-1.49.14-2.28.42-.79.28-1.47.64-2.03,1.09l-1.79-2.66c1.04-.77,2.08-1.3,3.11-1.61s2.14-.46,3.33-.46c1.92,0,3.43.48,4.51,1.43,1.08.95,1.62,2.26,1.62,3.92v8.74h-3.53Z" fill="#00efd2"/>
            <path d="M319.68,147.22v-19.52h5.85l4.82,13.75h-.73l4.82-13.75h5.85v19.52h-4v-14.81l.36.06-4.7,13.02h-3.89l-4.73-13.02.36-.06v14.81h-4Z" fill="#00efd2"/>
            <path d="M347.71,147.5c-1.01,0-1.91-.19-2.72-.56-.8-.37-1.44-.91-1.9-1.61-.47-.7-.7-1.51-.7-2.42,0-.8.17-1.49.5-2.07s.78-1.03,1.34-1.34c.45-.26.95-.45,1.51-.56.56-.11,1.15-.17,1.76-.17h4.23v2.83h-3.67c-.26,0-.5.02-.73.07-.22.05-.43.14-.62.27-.15.11-.27.25-.35.42s-.13.35-.13.56c0,.47.18.84.55,1.11.36.27.85.41,1.47.41.58,0,1.11-.12,1.58-.36.48-.24.86-.58,1.15-1.01.29-.43.43-.91.43-1.46l.9,2.1c-.3.97-.7,1.73-1.19,2.28-.5.55-1.04.94-1.62,1.18-.59.23-1.19.35-1.81.35ZM351.71,147.22l-.28-1.85v-6.89c0-.75-.25-1.29-.74-1.62-.49-.34-1.13-.5-1.92-.5-.73,0-1.49.14-2.28.42-.79.28-1.47.64-2.03,1.09l-1.79-2.66c1.04-.77,2.08-1.3,3.11-1.61s2.14-.46,3.33-.46c1.92,0,3.43.48,4.51,1.43,1.08.95,1.62,2.26,1.62,3.92v8.74h-3.53Z" fill="#00efd2"/>
            <path d="M362.71,147.5c-1.19,0-2.23-.31-3.09-.94-.87-.62-1.53-1.48-1.97-2.56-.45-1.08-.67-2.31-.67-3.7,0-1.53.26-2.83.77-3.89.51-1.06,1.21-1.88,2.09-2.44.88-.56,1.84-.84,2.88-.84.71,0,1.38.15,2,.43.62.29,1.17.75,1.62,1.37.46.63.76,1.45.91,2.48l-.73-.39v-9.32h3.84v19.52h-3.84v-3.56l.84-.62c-.22,1.19-.59,2.11-1.09,2.76s-1.06,1.09-1.68,1.33-1.24.36-1.88.36ZM363.86,143.97c.62,0,1.15-.15,1.6-.45.45-.3.79-.72,1.04-1.27.24-.55.36-1.2.36-1.95s-.12-1.39-.36-1.93c-.24-.54-.59-.97-1.04-1.27s-.98-.46-1.6-.46-1.15.15-1.61.45c-.46.3-.81.72-1.06,1.26-.25.54-.38,1.19-.38,1.96s.13,1.42.38,1.97c.25.55.61.97,1.06,1.26.46.29.99.43,1.61.43Z" fill="#00efd2"/>
            <path d="M377.81,147.5c-1.18,0-2.14-.23-2.9-.69-.76-.46-1.31-1.1-1.67-1.93s-.53-1.8-.53-2.9v-8.57h3.84v7.73c0,.54.06,1.04.18,1.5.12.46.35.83.7,1.11.34.28.86.42,1.55.42.84,0,1.45-.25,1.83-.74s.63-1.18.74-2.04c.11-.87.17-1.85.17-2.95v-5.01h3.86v13.8h-3.86v-3l.45.36c-.43,1.08-1.03,1.84-1.81,2.27s-1.63.64-2.56.64Z" fill="#00efd2"/>
            <path d="M388.14,147.22v-13.8h3.86v3.75l-.53.03c.06-.78.28-1.48.69-2.1.4-.62.91-1.1,1.53-1.44.62-.35,1.25-.52,1.9-.52.47,0,.91.07,1.34.2.43.13.89.35,1.37.64l-1.85,3.47c-.21-.13-.47-.25-.8-.35-.33-.1-.66-.15-.99-.15s-.66.07-.98.2c-.32.13-.6.32-.84.57-.24.25-.44.58-.59.99-.09.26-.16.59-.21.99-.05.4-.07.99-.07,1.78v5.74h-3.84Z" fill="#00efd2"/>
            <path d="M404.04,147.5c-1.01,0-1.91-.19-2.72-.56-.8-.37-1.44-.91-1.9-1.61-.47-.7-.7-1.51-.7-2.42,0-.8.17-1.49.5-2.07s.78-1.03,1.34-1.34c.45-.26.95-.45,1.51-.56.56-.11,1.15-.17,1.76-.17h4.23v2.83h-3.67c-.26,0-.5.02-.73.07-.22.05-.43.14-.62.27-.15.11-.27.25-.35.42s-.13.35-.13.56c0,.47.18.84.55,1.11.36.27.85.41,1.47.41.58,0,1.11-.12,1.58-.36.48-.24.86-.58,1.15-1.01.29-.43.43-.91.43-1.46l.9,2.1c-.3.97-.7,1.73-1.19,2.28-.5.55-1.04.94-1.62,1.18-.59.23-1.19.35-1.81.35ZM408.05,147.22l-.28-1.85v-6.89c0-.75-.25-1.29-.74-1.62-.5-.34-1.13-.5-1.92-.5-.73,0-1.49.14-2.28.42-.79.28-1.47.64-2.03,1.09l-1.79-2.66c1.05-.77,2.08-1.3,3.11-1.61,1.03-.31,2.14-.46,3.33-.46,1.92,0,3.42.48,4.51,1.43,1.08.95,1.62,2.26,1.62,3.92v8.74h-3.53Z" fill="#00efd2"/>
          </g>
        </g>
        <path d="M346.3,175c-48.25,0-87.5-39.25-87.5-87.5S298.05,0,346.3,0c33.39,0,63.4,18.57,78.33,48.46.49.99.09,2.19-.9,2.68-.99.49-2.19.09-2.68-.9-14.25-28.53-42.89-46.25-74.75-46.25-46.04,0-83.5,37.46-83.5,83.5s37.46,83.5,83.5,83.5c1.1,0,2,.9,2,2s-.9,2-2,2Z" fill="#00efd2"/>
        <g id="_3" data-name=" 3" isolation="isolate">
          <g isolation="isolate">
            <path d="M473.46,87.58v-12.12h-12.12v-4.62h12.12v-12.12h4.68v12.12h12.12v4.62h-12.12v12.12h-4.68Z" fill="#00efd2"/>
          </g>
        </g>
      </g>
      <g>
        <path d="M864.5,175c-48.25,0-87.5-39.25-87.5-87.5S816.25,0,864.5,0c33.39,0,63.4,18.57,78.33,48.46.49.99.09,2.19-.9,2.68-.99.49-2.19.09-2.68-.9-14.25-28.53-42.89-46.25-74.75-46.25-46.04,0-83.5,37.46-83.5,83.5s37.46,83.5,83.5,83.5c1.1,0,2,.9,2,2s-.9,2-2,2Z" fill="#00efd2"/>
        <g id="_4" data-name=" 4" isolation="isolate">
          <g isolation="isolate">
            <path d="M981.74,69.1v-4.68h24.18v4.68h-24.18ZM981.74,81.94v-4.68h24.18v4.68h-24.18Z" fill="#00efd2"/>
          </g>
        </g>
        <g id="Deep_Technical_Expertise-5" data-name="Deep Technical Expertise">
          <g>
            <path d="M838.72,119.22v-19.52h6.66c2.22,0,3.9.47,5.03,1.41,1.13.94,1.69,2.37,1.69,4.27s-.57,3.38-1.72,4.38c-1.15,1-2.81,1.5-5,1.5h-2.69v7.95h-3.98ZM842.69,107.68h2.27c.99,0,1.75-.16,2.3-.48.54-.32.81-.9.81-1.76s-.26-1.39-.77-1.69c-.51-.31-1.29-.46-2.34-.46h-2.27v4.4Z" fill="#00efd2"/>
            <path d="M853.67,119.22v-13.8h3.86v3.75l-.53.03c.06-.78.28-1.48.69-2.1.4-.62.91-1.1,1.53-1.44.62-.35,1.25-.52,1.9-.52.47,0,.91.07,1.34.2.43.13.89.35,1.37.64l-1.85,3.47c-.21-.13-.47-.25-.8-.35-.33-.1-.66-.15-.99-.15s-.66.07-.98.2c-.32.13-.6.32-.84.57-.24.25-.44.58-.59.99-.09.26-.16.59-.21.99-.05.4-.07.99-.07,1.78v5.74h-3.84Z" fill="#00efd2"/>
            <path d="M870.75,119.5c-1.34,0-2.55-.31-3.61-.92-1.06-.62-1.9-1.47-2.51-2.56-.61-1.09-.91-2.33-.91-3.71s.3-2.64.91-3.72c.61-1.08,1.44-1.93,2.49-2.53s2.26-.91,3.63-.91,2.54.3,3.6.91,1.89,1.45,2.49,2.53c.61,1.08.91,2.32.91,3.72s-.3,2.62-.91,3.71c-.61,1.09-1.44,1.95-2.49,2.56-1.05.62-2.25.92-3.6.92ZM870.75,116.14c.67,0,1.24-.15,1.71-.45.47-.3.82-.74,1.06-1.32.24-.58.36-1.27.36-2.07s-.12-1.51-.36-2.07c-.24-.56-.6-.99-1.06-1.29-.47-.3-1.04-.45-1.71-.45s-1.25.15-1.72.45c-.48.3-.84.73-1.09,1.29-.25.56-.38,1.25-.38,2.07s.13,1.49.38,2.07c.25.58.62,1.02,1.09,1.32.48.3,1.05.45,1.72.45Z" fill="#00efd2"/>
            <path d="M877.67,119.22l4.62-6.97-4.62-6.83h4.54l2.66,4.34,2.69-4.34h4.51l-4.65,6.83,4.65,6.97h-4.51l-2.69-4.45-2.69,4.45h-4.51Z" fill="#00efd2"/>
            <path d="M893.4,103.4v-3.7h4v3.7h-4ZM893.46,119.22v-13.8h3.84v13.8h-3.84Z" fill="#00efd2"/>
            <path d="M899.84,119.22v-13.8h3.84v3.61l-.84.78c.13-.95.36-1.74.69-2.35.33-.62.71-1.09,1.16-1.43.45-.34.92-.57,1.4-.7.49-.13.96-.2,1.43-.2.67,0,1.34.13,2,.38.66.25,1.25.71,1.75,1.36.5.65.86,1.58,1.06,2.77l-2.32.95c.28-1.42.71-2.52,1.29-3.32.58-.79,1.23-1.35,1.95-1.67.72-.32,1.44-.48,2.17-.48,1.19,0,2.17.26,2.91.77.75.51,1.3,1.18,1.65,1.99s.53,1.66.53,2.53v8.79h-3.86v-7.87c0-.65-.08-1.19-.25-1.62-.17-.43-.41-.75-.73-.95s-.71-.31-1.18-.31c-.54,0-.99.14-1.34.42-.35.28-.62.71-.8,1.29s-.27,1.32-.27,2.21v6.83h-3.84v-7.9c0-.95-.18-1.67-.53-2.14s-.86-.71-1.51-.71c-.56,0-1.03.14-1.4.43s-.65.72-.84,1.29-.28,1.3-.28,2.2v6.83h-3.84Z" fill="#00efd2"/>
            <path d="M922.8,103.4v-3.7h4v3.7h-4ZM922.86,119.22v-13.8h3.84v13.8h-3.84Z" fill="#00efd2"/>
            <path d="M934.34,119.5c-1.19,0-2.23-.31-3.09-.94-.87-.62-1.53-1.48-1.97-2.56-.45-1.08-.67-2.31-.67-3.7,0-1.53.26-2.83.77-3.89.51-1.06,1.21-1.88,2.09-2.44.88-.56,1.84-.84,2.88-.84.71,0,1.38.15,2,.43.63.29,1.17.75,1.62,1.37s.76,1.45.91,2.48l-.73-.39v-9.32h3.84v19.52h-3.84v-3.56l.84-.62c-.22,1.19-.59,2.11-1.09,2.76s-1.06,1.09-1.68,1.33-1.24.36-1.88.36ZM935.49,115.97c.62,0,1.15-.15,1.6-.45.45-.3.79-.72,1.04-1.27.24-.55.36-1.2.36-1.95s-.12-1.39-.36-1.93c-.24-.54-.59-.97-1.04-1.27-.45-.31-.98-.46-1.6-.46s-1.15.15-1.61.45c-.46.3-.81.72-1.06,1.26-.25.54-.38,1.19-.38,1.96s.13,1.42.38,1.97c.25.55.61.97,1.06,1.26.46.29.99.43,1.61.43Z" fill="#00efd2"/>
            <path d="M949.23,119.5c-1.01,0-1.91-.19-2.72-.56-.8-.37-1.44-.91-1.9-1.61-.47-.7-.7-1.51-.7-2.42,0-.8.17-1.49.5-2.07s.78-1.03,1.34-1.34c.45-.26.95-.45,1.51-.56.56-.11,1.15-.17,1.76-.17h4.23v2.83h-3.67c-.26,0-.5.02-.73.07-.22.05-.43.14-.62.27-.15.11-.27.25-.35.42s-.13.35-.13.56c0,.47.18.84.55,1.11.36.27.85.41,1.47.41.58,0,1.11-.12,1.58-.36.48-.24.86-.58,1.15-1.01.29-.43.43-.91.43-1.46l.9,2.1c-.3.97-.7,1.73-1.19,2.28-.5.55-1.04.94-1.62,1.18-.59.23-1.19.35-1.81.35ZM953.24,119.22l-.28-1.85v-6.89c0-.75-.25-1.29-.74-1.62-.5-.34-1.13-.5-1.92-.5-.73,0-1.49.14-2.28.42-.79.28-1.47.64-2.03,1.09l-1.79-2.66c1.04-.77,2.08-1.3,3.11-1.61s2.14-.46,3.33-.46c1.92,0,3.43.48,4.51,1.43,1.08.95,1.62,2.26,1.62,3.92v8.74h-3.53Z" fill="#00efd2"/>
            <path d="M964.24,119.5c-1.19,0-2.23-.31-3.09-.94-.87-.62-1.53-1.48-1.97-2.56-.45-1.08-.67-2.31-.67-3.7,0-1.53.26-2.83.77-3.89s1.21-1.88,2.09-2.44c.88-.56,1.84-.84,2.88-.84.71,0,1.38.15,2,.43.63.29,1.17.75,1.62,1.37s.76,1.45.91,2.48l-.73-.39v-9.32h3.84v19.52h-3.84v-3.56l.84-.62c-.22,1.19-.59,2.11-1.09,2.76s-1.06,1.09-1.68,1.33c-.62.24-1.24.36-1.88.36ZM965.39,115.97c.62,0,1.15-.15,1.6-.45.45-.3.79-.72,1.04-1.27.24-.55.36-1.2.36-1.95s-.12-1.39-.36-1.93c-.24-.54-.59-.97-1.04-1.27s-.98-.46-1.6-.46-1.15.15-1.61.45c-.46.3-.81.72-1.06,1.26-.25.54-.38,1.19-.38,1.96s.13,1.42.38,1.97c.25.55.61.97,1.06,1.26.46.29.99.43,1.61.43Z" fill="#00efd2"/>
            <path d="M838.72,147.22v-19.52h13.05v3.58h-9.04v4.12h8.51v3.58h-8.51v4.65h9.04v3.58h-13.05Z" fill="#00efd2"/>
            <path d="M858.82,147.5c-1.05,0-1.96-.15-2.74-.45s-1.44-.67-1.96-1.11c-.52-.44-.95-.84-1.29-1.22l2.63-2.3c.32.47.75.92,1.3,1.34.55.43,1.25.64,2.09.64.62,0,1.1-.12,1.44-.36.35-.24.52-.52.52-.84,0-.3-.11-.54-.34-.71-.22-.18-.52-.33-.9-.46-.37-.13-.79-.26-1.26-.39-.52-.13-1.06-.29-1.62-.49-.56-.2-1.08-.45-1.57-.77-.49-.32-.88-.72-1.18-1.22s-.45-1.12-.45-1.86c0-1.25.49-2.26,1.47-3.02.98-.77,2.26-1.15,3.85-1.15,1.12,0,2.14.21,3.05.64.92.43,1.64,1.05,2.18,1.88l-2.38,1.88c-.34-.49-.77-.86-1.29-1.13-.52-.27-1.07-.41-1.65-.41-.49,0-.88.09-1.19.27-.31.18-.46.41-.46.69,0,.21.07.38.22.52.15.14.39.27.73.38.34.11.79.24,1.37.39.54.13,1.11.29,1.71.48.6.19,1.16.44,1.69.77.53.33.96.76,1.29,1.29.33.53.49,1.2.49,2,0,.93-.24,1.76-.71,2.48-.48.72-1.15,1.27-2.02,1.67s-1.88.59-3.04.59Z" fill="#00efd2"/>
            <path d="M865.15,136.41v-3h9.24v3h-9.24ZM871.95,147.5c-.77,0-1.48-.14-2.16-.43-.67-.29-1.21-.76-1.62-1.41-.41-.65-.62-1.54-.62-2.66v-12.63l3.89-2.07v13.61c0,.82.11,1.44.32,1.85.21.41.63.62,1.25.62.19,0,.4-.02.63-.06.23-.04.48-.09.74-.17v2.94c-.39.15-.79.26-1.19.32-.4.06-.82.1-1.25.1Z" fill="#00efd2"/>
            <path d="M876.26,147.22v-13.8h3.86v3.75l-.53.03c.06-.78.28-1.48.69-2.1s.91-1.1,1.53-1.44c.62-.35,1.25-.52,1.9-.52.47,0,.92.07,1.34.2.43.13.89.35,1.37.64l-1.85,3.47c-.21-.13-.47-.25-.8-.35-.33-.1-.66-.15-.99-.15s-.66.07-.98.2c-.32.13-.6.32-.84.57-.24.25-.44.58-.59.99-.09.26-.16.59-.21.99-.05.4-.07.99-.07,1.78v5.74h-3.84Z" fill="#00efd2"/>
            <path d="M892.17,147.5c-1.01,0-1.91-.19-2.72-.56-.8-.37-1.44-.91-1.9-1.61-.47-.7-.7-1.51-.7-2.42,0-.8.17-1.49.5-2.07s.78-1.03,1.34-1.34c.45-.26.95-.45,1.51-.56.56-.11,1.15-.17,1.76-.17h4.23v2.83h-3.67c-.26,0-.5.02-.73.07-.22.05-.43.14-.62.27-.15.11-.27.25-.35.42s-.13.35-.13.56c0,.47.18.84.55,1.11.36.27.85.41,1.47.41.58,0,1.11-.12,1.58-.36.48-.24.86-.58,1.15-1.01.29-.43.43-.91.43-1.46l.9,2.1c-.3.97-.7,1.73-1.19,2.28-.5.55-1.04.94-1.62,1.18-.59.23-1.19.35-1.81.35ZM896.17,147.22l-.28-1.85v-6.89c0-.75-.25-1.29-.74-1.62-.5-.34-1.13-.5-1.92-.5-.73,0-1.49.14-2.28.42-.79.28-1.47.64-2.03,1.09l-1.79-2.66c1.05-.77,2.08-1.3,3.11-1.61,1.03-.31,2.14-.46,3.33-.46,1.92,0,3.42.48,4.51,1.43,1.08.95,1.62,2.26,1.62,3.92v8.74h-3.53Z" fill="#00efd2"/>
            <path d="M900.74,136.41v-3h9.24v3h-9.24ZM907.54,147.5c-.77,0-1.48-.14-2.16-.43-.67-.29-1.21-.76-1.62-1.41-.41-.65-.62-1.54-.62-2.66v-12.63l3.89-2.07v13.61c0,.82.11,1.44.32,1.85.21.41.63.62,1.25.62.19,0,.4-.02.63-.06.23-.04.48-.09.74-.17v2.94c-.39.15-.79.26-1.19.32-.4.06-.82.1-1.25.1Z" fill="#00efd2"/>
            <path d="M917.84,147.5c-1.23,0-2.29-.2-3.18-.59s-1.61-.92-2.16-1.6c-.55-.67-.95-1.43-1.2-2.28-.25-.85-.38-1.73-.38-2.65s.13-1.75.38-2.6c.25-.86.64-1.64,1.16-2.34.52-.7,1.21-1.26,2.07-1.68s1.89-.63,3.08-.63c1.06,0,2,.18,2.81.55.81.36,1.49.87,2.03,1.51.54.64.95,1.4,1.22,2.28.27.88.41,1.82.41,2.83,0,.17,0,.36-.01.59,0,.22-.03.48-.07.76h-9.24c.11.86.48,1.5,1.09,1.92.62.42,1.35.63,2.21.63.69,0,1.38-.12,2.07-.36.69-.24,1.3-.59,1.82-1.04l1.76,2.69c-.69.49-1.33.88-1.92,1.18-.59.3-1.2.51-1.82.64s-1.34.2-2.14.2ZM920.31,139.71c.04-.15.07-.3.1-.45.03-.15.04-.29.04-.42,0-.37-.07-.71-.21-1.02-.14-.31-.33-.57-.57-.8-.24-.22-.53-.4-.87-.52-.34-.12-.71-.18-1.12-.18-.65,0-1.19.13-1.61.38s-.74.56-.95.94c-.21.37-.35.76-.41,1.15h6.89l-1.29.92ZM916.25,131.71l3.14-4h4.14l-4.51,4h-2.77Z" fill="#00efd2"/>
            <path d="M931.96,153.24c-2.09,0-3.73-.37-4.93-1.11-1.19-.74-1.79-1.74-1.79-3.01,0-.13,0-.28.03-.43.02-.16.05-.31.08-.46l4.03-2.38.87,1.09-1.68,2.07s-.03.07-.03.11v.11c0,.43.3.77.91,1.02s1.44.38,2.51.38c.86,0,1.5-.11,1.93-.32.43-.21.64-.5.64-.85,0-.21-.06-.37-.17-.49-.11-.12-.3-.22-.56-.31-.26-.08-.62-.16-1.08-.24-.46-.07-1.02-.15-1.69-.22-.84-.09-1.67-.27-2.51-.52s-1.52-.63-2.07-1.13-.83-1.18-.83-2.02c0-.77.26-1.46.77-2.09s1.2-1.14,2.06-1.55l1.71,1.48c-.45.06-.8.21-1.05.45-.25.24-.38.52-.38.84,0,.28.12.5.35.67.23.17.57.29,1.01.38.44.08.96.16,1.55.24.99.11,1.89.24,2.72.39s1.53.36,2.13.63c.6.27,1.06.64,1.38,1.12s.49,1.1.49,1.86c0,1.38-.55,2.44-1.67,3.18-1.11.74-2.69,1.11-4.75,1.11ZM931.68,143.52c-1.18,0-2.21-.22-3.11-.67s-1.59-1.06-2.09-1.83c-.5-.77-.74-1.66-.74-2.65,0-1.06.27-1.99.8-2.77.53-.78,1.24-1.39,2.13-1.82.89-.43,1.84-.64,2.87-.64s2.01.21,2.88.64c.88.43,1.59,1.05,2.14,1.85s.83,1.75.83,2.86c0,1.01-.24,1.89-.71,2.65-.48.76-1.14,1.34-2,1.76-.86.42-1.86.63-3,.63ZM931.59,140.47c.69,0,1.19-.21,1.5-.63.31-.42.46-.92.46-1.5s-.17-1.09-.52-1.47c-.35-.38-.83-.57-1.44-.57s-1.1.19-1.46.57c-.35.38-.53.87-.53,1.47s.16,1.08.48,1.5.82.63,1.51.63ZM936.44,136.44l-2.77-1.76,3.28-2.63,1.99,2.38-2.49,2.02Z" fill="#00efd2"/>
            <path d="M939.96,131.4v-3.7h4v3.7h-4ZM940.02,147.22v-13.8h3.84v13.8h-3.84Z" fill="#00efd2"/>
            <path d="M952.59,147.5c-1.16,0-2.16-.2-3.01-.6-.85-.4-1.56-.94-2.13-1.62-.57-.68-.99-1.45-1.27-2.31-.28-.86-.42-1.75-.42-2.66s.14-1.8.42-2.66c.28-.86.7-1.62,1.27-2.3s1.28-1.21,2.13-1.61,1.85-.6,3.01-.6c1.42,0,2.65.34,3.7,1.01,1.04.67,1.83,1.71,2.35,3.11l-3.36,1.34c-.21-.63-.52-1.15-.94-1.54-.42-.39-1-.59-1.75-.59s-1.28.19-1.72.56-.76.85-.97,1.44c-.21.59-.31,1.2-.31,1.83s.1,1.25.31,1.85c.21.6.53,1.08.97,1.46s1.01.56,1.72.56c.75,0,1.33-.2,1.75-.59.42-.39.73-.91.94-1.54l3.36,1.34c-.52,1.38-1.31,2.41-2.35,3.09-1.05.68-2.28,1.02-3.7,1.02Z" fill="#00efd2"/>
            <path d="M965.11,147.5c-1.01,0-1.91-.19-2.72-.56-.8-.37-1.44-.91-1.9-1.61-.47-.7-.7-1.51-.7-2.42,0-.8.17-1.49.5-2.07s.78-1.03,1.34-1.34c.45-.26.95-.45,1.51-.56.56-.11,1.15-.17,1.76-.17h4.23v2.83h-3.67c-.26,0-.5.02-.73.07-.22.05-.43.14-.62.27-.15.11-.27.25-.35.42s-.13.35-.13.56c0,.47.18.84.55,1.11.36.27.85.41,1.47.41.58,0,1.11-.12,1.58-.36.48-.24.86-.58,1.15-1.01.29-.43.43-.91.43-1.46l.9,2.1c-.3.97-.7,1.73-1.19,2.28-.5.55-1.04.94-1.62,1.18-.59.23-1.19.35-1.81.35ZM969.11,147.22l-.28-1.85v-6.89c0-.75-.25-1.29-.74-1.62-.5-.34-1.13-.5-1.92-.5-.73,0-1.49.14-2.28.42-.79.28-1.47.64-2.03,1.09l-1.79-2.66c1.04-.77,2.08-1.3,3.11-1.61s2.14-.46,3.33-.46c1.92,0,3.43.48,4.51,1.43,1.08.95,1.62,2.26,1.62,3.92v8.74h-3.53Z" fill="#00efd2"/>
          </g>
        </g>
      </g>
    </g>
  </g>
</svg>