<?xml version="1.0" encoding="UTF-8"?>
<svg id="Layer_2" data-name="Layer 2" xmlns="http://www.w3.org/2000/svg" viewBox="0 0 39.57 40.07">
  <g id="Layer_1-2" data-name="Layer 1">
    <g id="Digital-Product-Development">
      <path d="M12.17,17.53h-7.3C2.14,17.49-.03,15.25,0,12.52v-7.51C-.03,2.28,2.14.04,4.87,0h7.3c2.73.04,4.9,2.28,4.87,5.01v7.51c.04,2.73-2.14,4.97-4.87,5.01ZM4.87,2.51c-1.36.02-2.45,1.14-2.43,2.5v7.51c-.02,1.36,1.07,2.48,2.43,2.5h7.3c1.36-.02,2.45-1.14,2.43-2.5v-7.51c.02-1.36-1.07-2.48-2.43-2.5h-7.3Z" fill="#00efd2"/>
      <path d="M34.56,17.53h-7.51c-2.76,0-5.01-2.24-5.01-5.01v-7.51c0-2.76,2.24-5.01,5.01-5.01h7.51c2.76,0,5.01,2.24,5.01,5.01v7.51c0,2.76-2.24,5.01-5.01,5.01ZM27.05,2.5c-1.38,0-2.5,1.12-2.5,2.5v7.51c0,1.38,1.12,2.5,2.5,2.5h7.51c1.38,0,2.5-1.12,2.5-2.5v-7.51c0-1.38-1.12-2.5-2.5-2.5h-7.51Z" fill="#00efd2"/>
      <path d="M12.17,40.07h-7.3C2.14,40.03-.03,37.79,0,35.06v-7.51c-.04-2.73,2.14-4.97,4.87-5.01h7.3c2.73.04,4.9,2.28,4.87,5.01v7.51c.04,2.73-2.14,4.97-4.87,5.01ZM4.87,25.04c-1.36.02-2.45,1.14-2.43,2.5v7.51c-.02,1.36,1.07,2.48,2.43,2.5h7.3c1.36-.02,2.45-1.14,2.43-2.5v-7.51c.02-1.36-1.07-2.48-2.43-2.5h-7.3Z" fill="#00efd2"/>
      <path d="M34.56,40.07c-.69,0-1.25-.56-1.25-1.25,0-.69.56-1.25,1.25-1.25,1.38,0,2.5-1.12,2.5-2.5v-7.51c0-1.38-1.12-2.5-2.5-2.5h-7.51c-1.38,0-2.5,1.12-2.5,2.5v7.51c0,1.38,1.12,2.5,2.5,2.5.69,0,1.25.56,1.25,1.25,0,.69-.56,1.25-1.25,1.25-2.76,0-5.01-2.24-5.01-5.01v-7.51c0-2.76,2.24-5.01,5.01-5.01h7.51c2.76,0,5.01,2.24,5.01,5.01v7.51c0,2.76-2.24,5.01-5.01,5.01Z" fill="#00efd2"/>
    </g>
  </g>
</svg>