<?xml version="1.0" encoding="UTF-8"?>
<svg id="Layer_2" data-name="Layer 2" xmlns="http://www.w3.org/2000/svg" viewBox="0 0 36.92 40.71">
  <g id="Layer_1-2" data-name="Layer 1">
    <g id="Digital-Operations">
      <path d="M1.36,40.71c-.76-.02-1.37-.64-1.36-1.41v-17.82c-.01-.76.6-1.39,1.36-1.41.76.02,1.37.64,1.36,1.41v17.82c.01.76-.6,1.39-1.36,1.41Z" fill="#00efd2"/>
      <path d="M24.16,40.71c-.76-.01-1.37-.64-1.36-1.4V13.89c-.01-.76.6-1.39,1.36-1.4.76.01,1.37.64,1.36,1.4v25.43c0,.76-.6,1.38-1.36,1.4Z" fill="#00efd2"/>
      <path d="M12.76,40.71c-.76,0-1.36-.63-1.36-1.38V10.07c0-.76.6-1.37,1.36-1.38.76,0,1.36.63,1.36,1.38v29.26c0,.76-.6,1.37-1.36,1.38h0Z" fill="#00efd2"/>
      <path d="M35.56,40.7c-.85-.13-1.45-.9-1.36-1.76V1.76c-.1-.86.5-1.63,1.36-1.76.85.13,1.45.9,1.36,1.76v37.19c.1.86-.5,1.63-1.36,1.76h0Z" fill="#00efd2"/>
    </g>
  </g>
</svg>