<?xml version="1.0" encoding="UTF-8"?>
<svg id="Layer_2" data-name="Layer 2" xmlns="http://www.w3.org/2000/svg" viewBox="0 0 48.87 40.63">
  <g id="Layer_1-2" data-name="Layer 1">
    <g id="AI-and-Analytics">
      <path d="M35.02,10.98c-.76,0-1.39-.61-1.4-1.37,0-.76.64-1.38,1.4-1.37,1.53.01,2.78-1.21,2.8-2.74-.02-1.53-1.27-2.76-2.8-2.74-1.53-.02-2.78,1.21-2.8,2.74,0,.76-.64,1.38-1.4,1.37H1.4C.64,6.87.01,6.25,0,5.49c0-.76.64-1.38,1.4-1.37h28.19C30.26,1.67,32.49-.01,35.02,0c3.06-.03,5.56,2.43,5.6,5.49-.04,3.06-2.54,5.52-5.6,5.49Z" fill="#00efd2"/>
      <path d="M47.45,21.41h-19.13c-.77,0-1.4-.6-1.42-1.37.01-.77.65-1.38,1.42-1.37h19.13c.77,0,1.4.6,1.42,1.37-.02.77-.65,1.38-1.42,1.37Z" fill="#00efd2"/>
      <path d="M18.05,25.8c-.76,0-1.38-.61-1.39-1.37,0-.76.63-1.38,1.39-1.37,1.52,0,2.77-1.22,2.78-2.74,0-1.52-1.25-2.75-2.78-2.74h0c-1.52,0-2.77,1.22-2.78,2.74h0c0,.76-.63,1.38-1.39,1.37H1.39c-.76,0-1.38-.61-1.39-1.37,0-.76.63-1.38,1.39-1.37h11.28c.65-2.43,2.86-4.12,5.38-4.12,3.05-.01,5.53,2.44,5.56,5.49-.02,3.05-2.51,5.5-5.56,5.49Z" fill="#00efd2"/>
      <path d="M47.43,36.23h-6.46c-.77.02-1.42-.6-1.44-1.37.02-.77.66-1.39,1.44-1.37h6.46c.77-.02,1.42.6,1.44,1.37-.02.77-.66,1.39-1.44,1.37Z" fill="#00efd2"/>
      <path d="M47.44,7.14h-3.2c-.77.01-1.4-.6-1.42-1.37.01-.77.65-1.38,1.42-1.37h3.2c.77-.01,1.41.6,1.42,1.37-.02.77-.65,1.39-1.42,1.37Z" fill="#00efd2"/>
      <path d="M30.66,40.63c-.78-.02-1.4-.66-1.39-1.44-.01-.78.61-1.43,1.39-1.44,1.57-.03,2.81-1.32,2.79-2.88.03-1.57-1.22-2.86-2.79-2.88h0c-1.57.03-2.81,1.32-2.79,2.88.01.78-.61,1.43-1.39,1.44H1.39c-.78-.02-1.4-.66-1.39-1.44-.01-.78.61-1.43,1.39-1.44h23.87c.6-2.51,2.82-4.29,5.4-4.32,3.13.06,5.62,2.64,5.57,5.77.05,3.13-2.45,5.71-5.57,5.76Z" fill="#00efd2"/>
    </g>
  </g>
</svg>