<?xml version="1.0" encoding="UTF-8"?>
<svg id="Layer_2" data-name="Layer 2" xmlns="http://www.w3.org/2000/svg" viewBox="0 0 40.88 40.88">
  <g id="Layer_1-2" data-name="Layer 1">
    <g id="Enterprise-Systems">
      <path d="M33.85,40.88H7.03C3.14,40.87,0,37.71,0,33.82v-7.7c0-.71.57-1.28,1.28-1.28.71,0,1.28.58,1.28,1.28v7.7c0,2.47,2,4.48,4.47,4.49h26.83c2.47,0,4.47-2.02,4.47-4.49v-7.7c0-.71.57-1.28,1.28-1.28.71,0,1.28.58,1.28,1.28v7.7c0,3.89-3.14,7.05-7.02,7.06Z" fill="#00efd2"/>
      <path d="M27.72,4.66c-.34,0-.66-.15-.89-.39l-.78-.83c-.46-.49-1.1-.78-1.78-.78h-8.19c-.67,0-1.32.29-1.78.78l-.78.83c-.45.49-1.22.52-1.71.07-.02-.02-.05-.04-.07-.07-.49-.53-.49-1.35,0-1.88l.78-.82C13.45.57,14.73,0,16.08,0h8.19c1.35,0,2.64.57,3.56,1.56l.78.83c.49.53.49,1.35,0,1.88-.23.25-.55.39-.89.39h0Z" fill="#00efd2"/>
      <path d="M20.44,25.36c-7.91,0-14.61-1.99-19.93-5.91-.32-.24-.51-.61-.51-1.01v-5.65c.03-2.8,2.31-5.05,5.11-5.03h30.66c2.8-.02,5.08,2.23,5.11,5.03v5.65c0,.4-.19.77-.51,1.01-5.31,3.92-12.01,5.91-19.93,5.91ZM2.55,17.8c4.78,3.34,10.79,5.04,17.89,5.04s13.11-1.7,17.88-5.04v-5.01c-.01-1.4-1.16-2.52-2.55-2.51H5.11c-1.4-.01-2.54,1.11-2.55,2.51h0s0,5.01,0,5.01Z" fill="#00efd2"/>
      <path d="M22.04,19.66h-3.73c-.7-.02-1.25-.59-1.24-1.29-.01-.7.54-1.28,1.24-1.29h3.73c.7.02,1.25.59,1.24,1.29.01.7-.54,1.28-1.24,1.29Z" fill="#00efd2"/>
    </g>
  </g>
</svg>