<?xml version="1.0" encoding="UTF-8"?>
<svg id="Layer_2" data-name="Layer 2" xmlns="http://www.w3.org/2000/svg" viewBox="0 0 60.01 40.4">
  <g id="Layer_1-2" data-name="Layer 1">
    <path id="Enterprise-Cloud" d="M47.51,40.4H12.52c-6.89.01-12.49-5.55-12.52-12.44,0-.28,0-.57.03-.85.06-.81.76-1.41,1.57-1.36.81.05,1.42.75,1.37,1.56-.01.21-.02.42-.02.64.02,5.27,4.31,9.52,9.58,9.51h34.99c5.27.01,9.55-4.24,9.58-9.51-.04-4.69-3.46-8.67-8.1-9.4-.46-.07-.86-.35-1.08-.76-.22-.41-.23-.89-.03-1.31.61-1.27.92-2.66.92-4.07-.02-5.27-4.31-9.52-9.58-9.51-4.31,0-8.09,2.87-9.24,7.02-.22.77-1.01,1.23-1.78,1.04-.76-.19-1.54-.29-2.33-.28-4.31,0-8.09,2.87-9.24,7.02-.22.77-1.01,1.23-1.78,1.04-2.5-.61-5.14-.21-7.34,1.12-.69.42-1.6.21-2.03-.48-.42-.68-.21-1.58.47-2,0,0,0,0,.01,0,2.47-1.5,5.38-2.1,8.24-1.72,1.91-4.76,6.52-7.88,11.65-7.88.57,0,1.13.04,1.69.12C29.47,3.12,34.08,0,39.21,0c6.89-.01,12.49,5.55,12.52,12.43,0,1.24-.18,2.47-.55,3.65,5.26,1.57,8.85,6.41,8.83,11.89-.04,6.88-5.64,12.44-12.52,12.43h.02Z" fill="#00efd2"/>
  </g>
</svg>